# MagicaVoxel @ ephtracy

# material
mtllib bill_gates_skeleton.mtl
usemtl palette

# normals
vn -1 0 0
vn 1 0 0
vn 0 0 1
vn 0 0 -1
vn 0 -1 0
vn 0 1 0

# texcoords
vt 0.958984 0.5
vt 0.962891 0.5

# verts
v -7 0 -2
v -7 0 -6
v -7 1 -2
v -7 1 -6
v -6 0 1
v -6 0 -0
v -6 0 -1
v -6 0 -2
v -6 0 -6
v -6 0 -7
v -6 1 1
v -6 1 -0
v -6 1 -1
v -6 1 -2
v -6 1 -6
v -6 1 -7
v -5 0 3
v -5 0 1
v -5 0 -0
v -5 0 -1
v -5 0 -7
v -5 0 -8
v -5 1 3
v -5 1 1
v -5 1 -0
v -5 1 -1
v -5 1 -7
v -5 1 -8
v -4 0 7
v -4 0 5
v -4 0 4
v -4 0 3
v -4 0 -8
v -4 0 -9
v -4 1 7
v -4 1 5
v -4 1 4
v -4 1 3
v -4 1 -8
v -4 1 -9
v -3 0 8
v -3 0 7
v -3 0 5
v -3 0 4
v -3 0 -9
v -3 0 -10
v -3 1 8
v -3 1 7
v -3 1 5
v -3 1 4
v -3 1 -9
v -3 1 -10
v -2 0 9
v -2 0 8
v -2 0 6
v -2 0 5
v -2 0 4
v -2 0 3
v -2 1 9
v -2 1 8
v -2 1 6
v -2 1 5
v -2 1 4
v -2 1 3
v -1 0 5
v -1 0 4
v -1 0 -0
v -1 0 -1
v -1 0 -3
v -1 0 -4
v -1 0 -5
v -1 0 -6
v -1 1 5
v -1 1 4
v -1 1 -0
v -1 1 -1
v -1 1 -3
v -1 1 -4
v -1 1 -5
v -1 1 -6
v 0 0 6
v 0 0 5
v 0 0 4
v 0 0 3
v 0 1 6
v 0 1 5
v 0 1 4
v 0 1 3
v 1 0 5
v 1 0 4
v 1 0 1
v 1 0 -0
v 1 0 -1
v 1 0 -2
v 1 1 5
v 1 1 4
v 1 1 1
v 1 1 -0
v 1 1 -1
v 1 1 -2
v 2 0 6
v 2 0 5
v 2 0 4
v 2 0 3
v 2 0 -0
v 2 0 -1
v 2 1 6
v 2 1 5
v 2 1 4
v 2 1 3
v 2 1 -0
v 2 1 -1
v 3 0 5
v 3 0 4
v 3 1 5
v 3 1 4
v 4 0 -3
v 4 0 -4
v 4 0 -5
v 4 0 -6
v 4 1 -3
v 4 1 -4
v 4 1 -5
v 4 1 -6
v 6 0 -4
v 6 0 -5
v 6 1 -4
v 6 1 -5
v -6 0 -4
v -6 0 -5
v -6 1 -4
v -6 1 -5
v -4 0 -3
v -4 0 -4
v -4 0 -5
v -4 0 -6
v -4 1 -3
v -4 1 -4
v -4 1 -5
v -4 1 -6
v -3 0 6
v -3 0 5
v -3 0 4
v -3 0 3
v -3 1 6
v -3 1 5
v -3 1 4
v -3 1 3
v -2 0 5
v -2 0 4
v -2 0 -0
v -2 0 -1
v -2 1 5
v -2 1 4
v -2 1 -0
v -2 1 -1
v -1 0 6
v -1 0 5
v -1 0 4
v -1 0 3
v -1 0 1
v -1 0 -0
v -1 0 -1
v -1 0 -2
v -1 1 6
v -1 1 5
v -1 1 4
v -1 1 3
v -1 1 1
v -1 1 -0
v -1 1 -1
v -1 1 -2
v 0 0 5
v 0 0 4
v 0 1 5
v 0 1 4
v 1 0 6
v 1 0 5
v 1 0 4
v 1 0 3
v 1 0 -0
v 1 0 -1
v 1 0 -3
v 1 0 -4
v 1 0 -5
v 1 0 -6
v 1 1 6
v 1 1 5
v 1 1 4
v 1 1 3
v 1 1 -0
v 1 1 -1
v 1 1 -3
v 1 1 -4
v 1 1 -5
v 1 1 -6
v 2 0 9
v 2 0 8
v 2 0 5
v 2 0 4
v 2 1 9
v 2 1 8
v 2 1 5
v 2 1 4
v 3 0 8
v 3 0 7
v 3 0 6
v 3 0 5
v 3 0 4
v 3 0 3
v 3 0 -9
v 3 0 -10
v 3 1 8
v 3 1 7
v 3 1 6
v 3 1 5
v 3 1 4
v 3 1 3
v 3 1 -9
v 3 1 -10
v 4 0 7
v 4 0 6
v 4 0 5
v 4 0 4
v 4 0 -8
v 4 0 -9
v 4 1 7
v 4 1 6
v 4 1 5
v 4 1 4
v 4 1 -8
v 4 1 -9
v 5 0 3
v 5 0 1
v 5 0 -0
v 5 0 -1
v 5 0 -7
v 5 0 -8
v 5 1 3
v 5 1 1
v 5 1 -0
v 5 1 -1
v 5 1 -7
v 5 1 -8
v 6 0 1
v 6 0 -0
v 6 0 -1
v 6 0 -2
v 6 0 -6
v 6 0 -7
v 6 1 1
v 6 1 -0
v 6 1 -1
v 6 1 -2
v 6 1 -6
v 6 1 -7
v 7 0 -2
v 7 0 -6
v 7 1 -2
v 7 1 -6
v -2 0 9
v -2 1 9
v -1 0 9
v -1 1 9
v 1 0 9
v 1 1 9
v 2 0 9
v 2 1 9
v -3 0 8
v -3 1 8
v -2 0 8
v -2 1 8
v 2 0 8
v 2 1 8
v 3 0 8
v 3 1 8
v -4 0 7
v -4 1 7
v -3 0 7
v -3 1 7
v 3 0 7
v 3 1 7
v 4 0 7
v 4 1 7
v -3 0 5
v -3 1 5
v -2 0 5
v -2 1 5
v -1 0 5
v -1 1 5
v 0 0 5
v 0 1 5
v 1 0 5
v 1 1 5
v 2 0 5
v 2 1 5
v 3 0 5
v 3 1 5
v 4 0 5
v 4 1 5
v -4 0 4
v -4 1 4
v -3 0 4
v -3 1 4
v -2 0 4
v -2 1 4
v -1 0 4
v -1 1 4
v 0 0 4
v 0 1 4
v 1 0 4
v 1 1 4
v 2 0 4
v 2 1 4
v 3 0 4
v 3 1 4
v -5 0 3
v -5 1 3
v -4 0 3
v -4 1 3
v -3 0 3
v -3 1 3
v -2 0 3
v -2 1 3
v -1 0 3
v -1 1 3
v 0 0 3
v 0 1 3
v 1 0 3
v 1 1 3
v 2 0 3
v 2 1 3
v 3 0 3
v 3 1 3
v 5 0 3
v 5 1 3
v -6 0 1
v -6 1 1
v -5 0 1
v -5 1 1
v 5 0 1
v 5 1 1
v 6 0 1
v 6 1 1
v -1 0 -0
v -1 1 -0
v 1 0 -0
v 1 1 -0
v -6 0 -1
v -6 1 -1
v -5 0 -1
v -5 1 -1
v -2 0 -1
v -2 1 -1
v -1 0 -1
v -1 1 -1
v 1 0 -1
v 1 1 -1
v 2 0 -1
v 2 1 -1
v 5 0 -1
v 5 1 -1
v 6 0 -1
v 6 1 -1
v -7 0 -2
v -7 1 -2
v -6 0 -2
v -6 1 -2
v -1 0 -2
v -1 1 -2
v 1 0 -2
v 1 1 -2
v 6 0 -2
v 6 1 -2
v 7 0 -2
v 7 1 -2
v -6 0 -5
v -6 1 -5
v -4 0 -5
v -4 1 -5
v -1 0 -5
v -1 1 -5
v 1 0 -5
v 1 1 -5
v 4 0 -5
v 4 1 -5
v 6 0 -5
v 6 1 -5
v -4 0 -6
v -4 1 -6
v -1 0 -6
v -1 1 -6
v 1 0 -6
v 1 1 -6
v 4 0 -6
v 4 1 -6
v -3 0 6
v -3 1 6
v -2 0 6
v -2 1 6
v -1 0 6
v -1 1 6
v 0 0 6
v 0 1 6
v 1 0 6
v 1 1 6
v 2 0 6
v 2 1 6
v 3 0 6
v 3 1 6
v 4 0 6
v 4 1 6
v -4 0 5
v -4 1 5
v -3 0 5
v -3 1 5
v -2 0 5
v -2 1 5
v -1 0 5
v -1 1 5
v 0 0 5
v 0 1 5
v 1 0 5
v 1 1 5
v 2 0 5
v 2 1 5
v 3 0 5
v 3 1 5
v -3 0 4
v -3 1 4
v -2 0 4
v -2 1 4
v -1 0 4
v -1 1 4
v 0 0 4
v 0 1 4
v 1 0 4
v 1 1 4
v 2 0 4
v 2 1 4
v 3 0 4
v 3 1 4
v 4 0 4
v 4 1 4
v -1 0 1
v -1 1 1
v 1 0 1
v 1 1 1
v -6 0 -0
v -6 1 -0
v -5 0 -0
v -5 1 -0
v -2 0 -0
v -2 1 -0
v -1 0 -0
v -1 1 -0
v 1 0 -0
v 1 1 -0
v 2 0 -0
v 2 1 -0
v 5 0 -0
v 5 1 -0
v 6 0 -0
v 6 1 -0
v -1 0 -1
v -1 1 -1
v 1 0 -1
v 1 1 -1
v -4 0 -3
v -4 1 -3
v -1 0 -3
v -1 1 -3
v 1 0 -3
v 1 1 -3
v 4 0 -3
v 4 1 -3
v -6 0 -4
v -6 1 -4
v -4 0 -4
v -4 1 -4
v -1 0 -4
v -1 1 -4
v 1 0 -4
v 1 1 -4
v 4 0 -4
v 4 1 -4
v 6 0 -4
v 6 1 -4
v -7 0 -6
v -7 1 -6
v -6 0 -6
v -6 1 -6
v 6 0 -6
v 6 1 -6
v 7 0 -6
v 7 1 -6
v -6 0 -7
v -6 1 -7
v -5 0 -7
v -5 1 -7
v 5 0 -7
v 5 1 -7
v 6 0 -7
v 6 1 -7
v -5 0 -8
v -5 1 -8
v -4 0 -8
v -4 1 -8
v 4 0 -8
v 4 1 -8
v 5 0 -8
v 5 1 -8
v -4 0 -9
v -4 1 -9
v -3 0 -9
v -3 1 -9
v 3 0 -9
v 3 1 -9
v 4 0 -9
v 4 1 -9
v -3 0 -10
v -3 1 -10
v 3 0 -10
v 3 1 -10
v -2 0 9
v -1 0 9
v 1 0 9
v 2 0 9
v -3 0 8
v -2 0 8
v -1 0 8
v 1 0 8
v 2 0 8
v 3 0 8
v -4 0 7
v -3 0 7
v -2 0 7
v 2 0 7
v 3 0 7
v 4 0 7
v -3 0 6
v -2 0 6
v -1 0 6
v 0 0 6
v 1 0 6
v 2 0 6
v 3 0 6
v 4 0 6
v -4 0 5
v -3 0 5
v -2 0 5
v -1 0 5
v 0 0 5
v 1 0 5
v 2 0 5
v 3 0 5
v 4 0 5
v -4 0 4
v -3 0 4
v -2 0 4
v -1 0 4
v 0 0 4
v 1 0 4
v 2 0 4
v 3 0 4
v 4 0 4
v -5 0 3
v -4 0 3
v -3 0 3
v -2 0 3
v -1 0 3
v 0 0 3
v 1 0 3
v 2 0 3
v 3 0 3
v 5 0 3
v -4 0 2
v -3 0 2
v 3 0 2
v 4 0 2
v -6 0 1
v -5 0 1
v -4 0 1
v -1 0 1
v 1 0 1
v 4 0 1
v 5 0 1
v 6 0 1
v -6 0 -0
v -5 0 -0
v -4 0 -0
v -2 0 -0
v -1 0 -0
v 1 0 -0
v 2 0 -0
v 4 0 -0
v 5 0 -0
v 6 0 -0
v -6 0 -1
v -5 0 -1
v -4 0 -1
v -2 0 -1
v -1 0 -1
v 1 0 -1
v 2 0 -1
v 4 0 -1
v 5 0 -1
v 6 0 -1
v -7 0 -2
v -6 0 -2
v -5 0 -2
v -1 0 -2
v 1 0 -2
v 5 0 -2
v 6 0 -2
v 7 0 -2
v -4 0 -3
v -1 0 -3
v 1 0 -3
v 4 0 -3
v -6 0 -4
v -4 0 -4
v -1 0 -4
v 1 0 -4
v 4 0 -4
v 6 0 -4
v -6 0 -5
v -4 0 -5
v -1 0 -5
v 1 0 -5
v 4 0 -5
v 6 0 -5
v -7 0 -6
v -6 0 -6
v -5 0 -6
v -4 0 -6
v -1 0 -6
v 1 0 -6
v 4 0 -6
v 5 0 -6
v 6 0 -6
v 7 0 -6
v -6 0 -7
v -5 0 -7
v -4 0 -7
v 4 0 -7
v 5 0 -7
v 6 0 -7
v -5 0 -8
v -4 0 -8
v -3 0 -8
v 3 0 -8
v 4 0 -8
v 5 0 -8
v -4 0 -9
v -3 0 -9
v 3 0 -9
v 4 0 -9
v -3 0 -10
v 3 0 -10
v -2 1 9
v -1 1 9
v 1 1 9
v 2 1 9
v -3 1 8
v -2 1 8
v -1 1 8
v 1 1 8
v 2 1 8
v 3 1 8
v -4 1 7
v -3 1 7
v -2 1 7
v 2 1 7
v 3 1 7
v 4 1 7
v -3 1 6
v -2 1 6
v -1 1 6
v 0 1 6
v 1 1 6
v 2 1 6
v 3 1 6
v 4 1 6
v -4 1 5
v -3 1 5
v -2 1 5
v -1 1 5
v 0 1 5
v 1 1 5
v 2 1 5
v 3 1 5
v 4 1 5
v -4 1 4
v -3 1 4
v -2 1 4
v -1 1 4
v 0 1 4
v 1 1 4
v 2 1 4
v 3 1 4
v 4 1 4
v -5 1 3
v -4 1 3
v -3 1 3
v -2 1 3
v -1 1 3
v 0 1 3
v 1 1 3
v 2 1 3
v 3 1 3
v 5 1 3
v -4 1 2
v -3 1 2
v 3 1 2
v 4 1 2
v -6 1 1
v -5 1 1
v -4 1 1
v -1 1 1
v 1 1 1
v 4 1 1
v 5 1 1
v 6 1 1
v -6 1 -0
v -5 1 -0
v -4 1 -0
v -2 1 -0
v -1 1 -0
v 1 1 -0
v 2 1 -0
v 4 1 -0
v 5 1 -0
v 6 1 -0
v -6 1 -1
v -5 1 -1
v -4 1 -1
v -2 1 -1
v -1 1 -1
v 1 1 -1
v 2 1 -1
v 4 1 -1
v 5 1 -1
v 6 1 -1
v -7 1 -2
v -6 1 -2
v -5 1 -2
v -1 1 -2
v 1 1 -2
v 5 1 -2
v 6 1 -2
v 7 1 -2
v -4 1 -3
v -1 1 -3
v 1 1 -3
v 4 1 -3
v -6 1 -4
v -4 1 -4
v -1 1 -4
v 1 1 -4
v 4 1 -4
v 6 1 -4
v -6 1 -5
v -4 1 -5
v -1 1 -5
v 1 1 -5
v 4 1 -5
v 6 1 -5
v -7 1 -6
v -6 1 -6
v -5 1 -6
v -4 1 -6
v -1 1 -6
v 1 1 -6
v 4 1 -6
v 5 1 -6
v 6 1 -6
v 7 1 -6
v -6 1 -7
v -5 1 -7
v -4 1 -7
v 4 1 -7
v 5 1 -7
v 6 1 -7
v -5 1 -8
v -4 1 -8
v -3 1 -8
v 3 1 -8
v 4 1 -8
v 5 1 -8
v -4 1 -9
v -3 1 -9
v 3 1 -9
v 4 1 -9
v -3 1 -10
v 3 1 -10

# faces
f 3/2/1 2/2/1 1/2/1
f 4/2/1 2/2/1 3/2/1
f 11/2/1 6/2/1 5/2/1
f 12/2/1 6/2/1 11/2/1
f 13/2/1 8/2/1 7/2/1
f 14/2/1 8/2/1 13/2/1
f 15/2/1 10/2/1 9/2/1
f 16/2/1 10/2/1 15/2/1
f 23/2/1 18/2/1 17/2/1
f 24/2/1 18/2/1 23/2/1
f 25/2/1 20/2/1 19/2/1
f 26/2/1 20/2/1 25/2/1
f 27/2/1 22/2/1 21/2/1
f 28/2/1 22/2/1 27/2/1
f 35/2/1 30/2/1 29/2/1
f 36/2/1 30/2/1 35/2/1
f 37/2/1 32/2/1 31/2/1
f 38/2/1 32/2/1 37/2/1
f 39/2/1 34/2/1 33/2/1
f 40/2/1 34/2/1 39/2/1
f 47/2/1 42/2/1 41/2/1
f 48/2/1 42/2/1 47/2/1
f 49/2/1 44/2/1 43/2/1
f 50/2/1 44/2/1 49/2/1
f 51/2/1 46/2/1 45/2/1
f 52/2/1 46/2/1 51/2/1
f 59/2/1 54/2/1 53/2/1
f 60/2/1 54/2/1 59/2/1
f 61/2/1 56/2/1 55/2/1
f 62/2/1 56/2/1 61/2/1
f 63/1/1 58/1/1 57/1/1
f 64/1/1 58/1/1 63/1/1
f 73/2/1 66/2/1 65/2/1
f 74/2/1 66/2/1 73/2/1
f 75/1/1 68/1/1 67/1/1
f 76/1/1 68/1/1 75/1/1
f 77/1/1 70/1/1 69/1/1
f 78/1/1 70/1/1 77/1/1
f 79/1/1 72/1/1 71/1/1
f 80/1/1 72/1/1 79/1/1
f 85/2/1 82/2/1 81/2/1
f 86/2/1 82/2/1 85/2/1
f 87/1/1 84/1/1 83/1/1
f 88/1/1 84/1/1 87/1/1
f 95/2/1 90/2/1 89/2/1
f 96/2/1 90/2/1 95/2/1
f 97/1/1 92/1/1 91/1/1
f 98/1/1 92/1/1 97/1/1
f 99/1/1 94/1/1 93/1/1
f 100/1/1 94/1/1 99/1/1
f 107/2/1 102/2/1 101/2/1
f 108/2/1 102/2/1 107/2/1
f 109/1/1 104/1/1 103/1/1
f 110/1/1 104/1/1 109/1/1
f 111/1/1 106/1/1 105/1/1
f 112/1/1 106/1/1 111/1/1
f 115/1/1 114/1/1 113/1/1
f 116/1/1 114/1/1 115/1/1
f 121/1/1 118/1/1 117/1/1
f 122/1/1 118/1/1 121/1/1
f 123/1/1 120/1/1 119/1/1
f 124/1/1 120/1/1 123/1/1
f 127/2/1 126/2/1 125/2/1
f 128/2/1 126/2/1 127/2/1
f 129/2/2 130/2/2 131/2/2
f 131/2/2 130/2/2 132/2/2
f 133/1/2 134/1/2 137/1/2
f 137/1/2 134/1/2 138/1/2
f 135/1/2 136/1/2 139/1/2
f 139/1/2 136/1/2 140/1/2
f 141/2/2 142/2/2 145/2/2
f 145/2/2 142/2/2 146/2/2
f 143/2/2 144/2/2 147/2/2
f 147/2/2 144/2/2 148/2/2
f 149/2/2 150/2/2 153/2/2
f 153/2/2 150/2/2 154/2/2
f 151/1/2 152/1/2 155/1/2
f 155/1/2 152/1/2 156/1/2
f 157/2/2 158/2/2 165/2/2
f 165/2/2 158/2/2 166/2/2
f 159/1/2 160/1/2 167/1/2
f 167/1/2 160/1/2 168/1/2
f 161/1/2 162/1/2 169/1/2
f 169/1/2 162/1/2 170/1/2
f 163/1/2 164/1/2 171/1/2
f 171/1/2 164/1/2 172/1/2
f 173/2/2 174/2/2 175/2/2
f 175/2/2 174/2/2 176/2/2
f 177/2/2 178/2/2 187/2/2
f 187/2/2 178/2/2 188/2/2
f 179/1/2 180/1/2 189/1/2
f 189/1/2 180/1/2 190/1/2
f 181/1/2 182/1/2 191/1/2
f 191/1/2 182/1/2 192/1/2
f 183/1/2 184/1/2 193/1/2
f 193/1/2 184/1/2 194/1/2
f 185/1/2 186/1/2 195/1/2
f 195/1/2 186/1/2 196/1/2
f 197/2/2 198/2/2 201/2/2
f 201/2/2 198/2/2 202/2/2
f 199/2/2 200/2/2 203/2/2
f 203/2/2 200/2/2 204/2/2
f 205/2/2 206/2/2 213/2/2
f 213/2/2 206/2/2 214/2/2
f 207/2/2 208/2/2 215/2/2
f 215/2/2 208/2/2 216/2/2
f 209/1/2 210/1/2 217/1/2
f 217/1/2 210/1/2 218/1/2
f 211/2/2 212/2/2 219/2/2
f 219/2/2 212/2/2 220/2/2
f 221/2/2 222/2/2 227/2/2
f 227/2/2 222/2/2 228/2/2
f 223/1/2 224/1/2 229/1/2
f 229/1/2 224/1/2 230/1/2
f 225/2/2 226/2/2 231/2/2
f 231/2/2 226/2/2 232/2/2
f 233/2/2 234/2/2 239/2/2
f 239/2/2 234/2/2 240/2/2
f 235/2/2 236/2/2 241/2/2
f 241/2/2 236/2/2 242/2/2
f 237/2/2 238/2/2 243/2/2
f 243/2/2 238/2/2 244/2/2
f 245/2/2 246/2/2 251/2/2
f 251/2/2 246/2/2 252/2/2
f 247/2/2 248/2/2 253/2/2
f 253/2/2 248/2/2 254/2/2
f 249/2/2 250/2/2 255/2/2
f 255/2/2 250/2/2 256/2/2
f 257/2/2 258/2/2 259/2/2
f 259/2/2 258/2/2 260/2/2
f 263/2/3 262/2/3 261/2/3
f 264/2/3 262/2/3 263/2/3
f 265/1/3 264/1/3 263/1/3
f 266/1/3 264/1/3 265/1/3
f 267/2/3 266/2/3 265/2/3
f 268/2/3 266/2/3 267/2/3
f 271/2/3 270/2/3 269/2/3
f 272/2/3 270/2/3 271/2/3
f 275/2/3 274/2/3 273/2/3
f 276/2/3 274/2/3 275/2/3
f 279/2/3 278/2/3 277/2/3
f 280/2/3 278/2/3 279/2/3
f 283/2/3 282/2/3 281/2/3
f 284/2/3 282/2/3 283/2/3
f 287/2/3 286/2/3 285/2/3
f 288/2/3 286/2/3 287/2/3
f 291/2/3 290/2/3 289/2/3
f 292/2/3 290/2/3 291/2/3
f 295/2/3 294/2/3 293/2/3
f 296/2/3 294/2/3 295/2/3
f 299/1/3 298/1/3 297/1/3
f 300/1/3 298/1/3 299/1/3
f 303/2/3 302/2/3 301/2/3
f 304/2/3 302/2/3 303/2/3
f 307/1/3 306/1/3 305/1/3
f 308/1/3 306/1/3 307/1/3
f 311/1/3 310/1/3 309/1/3
f 312/1/3 310/1/3 311/1/3
f 315/1/3 314/1/3 313/1/3
f 316/1/3 314/1/3 315/1/3
f 319/2/3 318/2/3 317/2/3
f 320/2/3 318/2/3 319/2/3
f 323/1/3 322/1/3 321/1/3
f 324/1/3 322/1/3 323/1/3
f 327/1/3 326/1/3 325/1/3
f 328/1/3 326/1/3 327/1/3
f 331/1/3 330/1/3 329/1/3
f 332/1/3 330/1/3 331/1/3
f 335/2/3 334/2/3 333/2/3
f 336/2/3 334/2/3 335/2/3
f 339/2/3 338/2/3 337/2/3
f 340/2/3 338/2/3 339/2/3
f 343/2/3 342/2/3 341/2/3
f 344/2/3 342/2/3 343/2/3
f 347/1/3 346/1/3 345/1/3
f 348/1/3 346/1/3 347/1/3
f 351/2/3 350/2/3 349/2/3
f 352/2/3 350/2/3 351/2/3
f 355/1/3 354/1/3 353/1/3
f 356/1/3 354/1/3 355/1/3
f 359/1/3 358/1/3 357/1/3
f 360/1/3 358/1/3 359/1/3
f 363/2/3 362/2/3 361/2/3
f 364/2/3 362/2/3 363/2/3
f 367/2/3 366/2/3 365/2/3
f 368/2/3 366/2/3 367/2/3
f 371/1/3 370/1/3 369/1/3
f 372/1/3 370/1/3 371/1/3
f 375/2/3 374/2/3 373/2/3
f 376/2/3 374/2/3 375/2/3
f 379/1/3 378/1/3 377/1/3
f 380/1/3 378/1/3 379/1/3
f 383/1/3 382/1/3 381/1/3
f 384/1/3 382/1/3 383/1/3
f 387/1/3 386/1/3 385/1/3
f 388/1/3 386/1/3 387/1/3
f 391/1/3 390/1/3 389/1/3
f 392/1/3 390/1/3 391/1/3
f 395/1/3 394/1/3 393/1/3
f 396/1/3 394/1/3 395/1/3
f 397/1/4 398/1/4 399/1/4
f 399/1/4 398/1/4 400/1/4
f 401/1/4 402/1/4 403/1/4
f 403/1/4 402/1/4 404/1/4
f 405/1/4 406/1/4 407/1/4
f 407/1/4 406/1/4 408/1/4
f 409/2/4 410/2/4 411/2/4
f 411/2/4 410/2/4 412/2/4
f 413/2/4 414/2/4 415/2/4
f 415/2/4 414/2/4 416/2/4
f 417/2/4 418/2/4 419/2/4
f 419/2/4 418/2/4 420/2/4
f 421/2/4 422/2/4 423/2/4
f 423/2/4 422/2/4 424/2/4
f 425/2/4 426/2/4 427/2/4
f 427/2/4 426/2/4 428/2/4
f 429/2/4 430/2/4 431/2/4
f 431/2/4 430/2/4 432/2/4
f 433/2/4 434/2/4 435/2/4
f 435/2/4 434/2/4 436/2/4
f 437/2/4 438/2/4 439/2/4
f 439/2/4 438/2/4 440/2/4
f 441/1/4 442/1/4 443/1/4
f 443/1/4 442/1/4 444/1/4
f 445/1/4 446/1/4 447/1/4
f 447/1/4 446/1/4 448/1/4
f 449/2/4 450/2/4 451/2/4
f 451/2/4 450/2/4 452/2/4
f 453/1/4 454/1/4 455/1/4
f 455/1/4 454/1/4 456/1/4
f 457/1/4 458/1/4 459/1/4
f 459/1/4 458/1/4 460/1/4
f 461/2/4 462/2/4 463/2/4
f 463/2/4 462/2/4 464/2/4
f 465/1/4 466/1/4 467/1/4
f 467/1/4 466/1/4 468/1/4
f 469/1/4 470/1/4 471/1/4
f 471/1/4 470/1/4 472/1/4
f 473/1/4 474/1/4 475/1/4
f 475/1/4 474/1/4 476/1/4
f 477/1/4 478/1/4 479/1/4
f 479/1/4 478/1/4 480/1/4
f 481/1/4 482/1/4 483/1/4
f 483/1/4 482/1/4 484/1/4
f 485/1/4 486/1/4 487/1/4
f 487/1/4 486/1/4 488/1/4
f 489/2/4 490/2/4 491/2/4
f 491/2/4 490/2/4 492/2/4
f 493/2/4 494/2/4 495/2/4
f 495/2/4 494/2/4 496/2/4
f 497/2/4 498/2/4 499/2/4
f 499/2/4 498/2/4 500/2/4
f 501/2/4 502/2/4 503/2/4
f 503/2/4 502/2/4 504/2/4
f 505/2/4 506/2/4 507/2/4
f 507/2/4 506/2/4 508/2/4
f 509/2/4 510/2/4 511/2/4
f 511/2/4 510/2/4 512/2/4
f 513/2/4 514/2/4 515/2/4
f 515/2/4 514/2/4 516/2/4
f 517/2/4 518/2/4 519/2/4
f 519/2/4 518/2/4 520/2/4
f 521/2/4 522/2/4 523/2/4
f 523/2/4 522/2/4 524/2/4
f 530/2/5 526/2/5 525/2/5
f 531/1/5 527/1/5 526/1/5
f 531/2/5 526/2/5 530/2/5
f 532/2/5 528/2/5 527/2/5
f 532/1/5 527/1/5 531/1/5
f 533/2/5 528/2/5 532/2/5
f 536/2/5 530/2/5 529/2/5
f 537/1/5 531/1/5 530/1/5
f 537/1/5 532/1/5 531/1/5
f 537/2/5 530/2/5 536/2/5
f 537/1/5 533/1/5 532/1/5
f 538/2/5 534/2/5 533/2/5
f 538/1/5 533/1/5 537/1/5
f 539/2/5 534/2/5 538/2/5
f 541/2/5 536/2/5 535/2/5
f 541/1/5 537/1/5 536/1/5
f 541/1/5 539/1/5 538/1/5
f 541/1/5 538/1/5 537/1/5
f 542/1/5 539/1/5 541/1/5
f 543/1/5 539/1/5 542/1/5
f 544/1/5 539/1/5 543/1/5
f 545/1/5 539/1/5 544/1/5
f 546/1/5 539/1/5 545/1/5
f 547/2/5 540/2/5 539/2/5
f 547/1/5 539/1/5 546/1/5
f 548/2/5 540/2/5 547/2/5
f 549/2/5 541/2/5 535/2/5
f 550/2/5 541/2/5 549/2/5
f 551/2/5 543/2/5 542/2/5
f 552/2/5 543/2/5 551/2/5
f 553/2/5 545/2/5 544/2/5
f 554/2/5 545/2/5 553/2/5
f 555/2/5 547/2/5 546/2/5
f 556/2/5 547/2/5 555/2/5
f 559/2/5 551/2/5 550/2/5
f 560/2/5 551/2/5 559/2/5
f 561/2/5 553/2/5 552/2/5
f 562/2/5 553/2/5 561/2/5
f 563/2/5 555/2/5 554/2/5
f 564/2/5 555/2/5 563/2/5
f 565/1/5 557/1/5 556/1/5
f 566/1/5 557/1/5 565/1/5
f 568/2/5 559/2/5 558/2/5
f 569/2/5 559/2/5 568/2/5
f 570/1/5 561/1/5 560/1/5
f 571/1/5 561/1/5 570/1/5
f 572/1/5 563/1/5 562/1/5
f 573/1/5 563/1/5 572/1/5
f 574/1/5 565/1/5 564/1/5
f 575/1/5 565/1/5 574/1/5
f 577/2/5 569/2/5 568/2/5
f 577/2/5 568/2/5 567/2/5
f 578/1/5 575/1/5 574/1/5
f 578/2/5 569/2/5 577/2/5
f 578/1/5 574/1/5 573/1/5
f 578/1/5 572/1/5 571/1/5
f 578/1/5 573/1/5 572/1/5
f 578/1/5 570/1/5 569/1/5
f 578/1/5 571/1/5 570/1/5
f 579/2/5 576/2/5 575/2/5
f 579/1/5 575/1/5 578/1/5
f 580/2/5 576/2/5 579/2/5
f 582/2/5 577/2/5 567/2/5
f 583/1/5 578/1/5 577/1/5
f 583/1/5 579/1/5 578/1/5
f 583/2/5 577/2/5 582/2/5
f 583/1/5 580/1/5 579/1/5
f 584/1/5 580/1/5 583/1/5
f 585/1/5 580/1/5 584/1/5
f 586/2/5 576/2/5 580/2/5
f 586/1/5 580/1/5 585/1/5
f 587/2/5 576/2/5 586/2/5
f 589/2/5 582/2/5 581/2/5
f 590/1/5 583/1/5 582/1/5
f 590/2/5 582/2/5 589/2/5
f 590/1/5 584/1/5 583/1/5
f 591/1/5 584/1/5 590/1/5
f 592/1/5 584/1/5 591/1/5
f 593/1/5 584/1/5 592/1/5
f 594/1/5 587/1/5 586/1/5
f 594/1/5 586/1/5 585/1/5
f 595/1/5 587/1/5 594/1/5
f 596/1/5 587/1/5 595/1/5
f 597/2/5 588/2/5 587/2/5
f 597/1/5 587/1/5 596/1/5
f 598/2/5 588/2/5 597/2/5
f 600/2/5 591/2/5 590/2/5
f 601/1/5 592/1/5 591/1/5
f 601/2/5 591/2/5 600/2/5
f 602/1/5 592/1/5 601/1/5
f 603/1/5 594/1/5 593/1/5
f 604/1/5 594/1/5 603/1/5
f 605/1/5 596/1/5 595/1/5
f 606/2/5 597/2/5 596/2/5
f 606/1/5 596/1/5 605/1/5
f 607/2/5 597/2/5 606/2/5
f 610/2/5 600/2/5 599/2/5
f 611/1/5 602/1/5 601/1/5
f 611/1/5 601/1/5 600/1/5
f 611/2/5 600/2/5 610/2/5
f 611/1/5 603/1/5 602/1/5
f 612/1/5 603/1/5 611/1/5
f 613/1/5 607/1/5 606/1/5
f 613/1/5 605/1/5 604/1/5
f 613/1/5 606/1/5 605/1/5
f 614/2/5 608/2/5 607/2/5
f 614/1/5 607/1/5 613/1/5
f 615/2/5 608/2/5 614/2/5
f 617/1/5 613/1/5 612/1/5
f 617/1/5 615/1/5 614/1/5
f 617/1/5 614/1/5 613/1/5
f 617/1/5 612/1/5 611/1/5
f 617/1/5 611/1/5 610/1/5
f 618/1/5 615/1/5 617/1/5
f 619/1/5 615/1/5 618/1/5
f 620/1/5 615/1/5 619/1/5
f 621/2/5 610/2/5 609/2/5
f 621/1/5 617/1/5 610/1/5
f 622/1/5 617/1/5 621/1/5
f 623/1/5 619/1/5 618/1/5
f 624/1/5 619/1/5 623/1/5
f 625/1/5 615/1/5 620/1/5
f 626/2/5 616/2/5 615/2/5
f 626/1/5 615/1/5 625/1/5
f 627/2/5 621/2/5 609/2/5
f 632/2/5 616/2/5 626/2/5
f 633/2/5 627/2/5 609/2/5
f 634/1/5 628/1/5 627/1/5
f 634/2/5 627/2/5 633/2/5
f 635/1/5 628/1/5 634/1/5
f 636/1/5 628/1/5 635/1/5
f 637/1/5 630/1/5 629/1/5
f 638/1/5 630/1/5 637/1/5
f 639/1/5 632/1/5 631/1/5
f 640/1/5 632/1/5 639/1/5
f 641/2/5 616/2/5 632/2/5
f 641/1/5 632/1/5 640/1/5
f 642/2/5 616/2/5 641/2/5
f 643/2/5 635/2/5 634/2/5
f 644/1/5 636/1/5 635/1/5
f 644/2/5 635/2/5 643/2/5
f 644/1/5 638/1/5 637/1/5
f 644/1/5 639/1/5 638/1/5
f 644/1/5 640/1/5 639/1/5
f 644/1/5 637/1/5 636/1/5
f 645/1/5 640/1/5 644/1/5
f 646/1/5 640/1/5 645/1/5
f 647/2/5 641/2/5 640/2/5
f 647/1/5 640/1/5 646/1/5
f 648/2/5 641/2/5 647/2/5
f 649/2/5 645/2/5 644/2/5
f 650/1/5 646/1/5 645/1/5
f 650/2/5 645/2/5 649/2/5
f 651/1/5 646/1/5 650/1/5
f 652/1/5 646/1/5 651/1/5
f 653/2/5 647/2/5 646/2/5
f 653/1/5 646/1/5 652/1/5
f 654/2/5 647/2/5 653/2/5
f 655/2/5 651/2/5 650/2/5
f 656/1/5 652/1/5 651/1/5
f 656/2/5 651/2/5 655/2/5
f 657/2/5 653/2/5 652/2/5
f 657/1/5 652/1/5 656/1/5
f 658/2/5 653/2/5 657/2/5
f 659/2/5 657/2/5 656/2/5
f 660/2/5 657/2/5 659/2/5
f 661/2/6 662/2/6 666/2/6
f 662/1/6 663/1/6 667/1/6
f 666/2/6 662/2/6 667/2/6
f 663/2/6 664/2/6 668/2/6
f 667/1/6 663/1/6 668/1/6
f 668/2/6 664/2/6 669/2/6
f 665/2/6 666/2/6 672/2/6
f 666/1/6 667/1/6 673/1/6
f 667/1/6 668/1/6 673/1/6
f 672/2/6 666/2/6 673/2/6
f 668/1/6 669/1/6 673/1/6
f 669/2/6 670/2/6 674/2/6
f 673/1/6 669/1/6 674/1/6
f 674/2/6 670/2/6 675/2/6
f 671/2/6 672/2/6 677/2/6
f 672/1/6 673/1/6 677/1/6
f 674/1/6 675/1/6 677/1/6
f 673/1/6 674/1/6 677/1/6
f 677/1/6 675/1/6 678/1/6
f 678/1/6 675/1/6 679/1/6
f 679/1/6 675/1/6 680/1/6
f 680/1/6 675/1/6 681/1/6
f 681/1/6 675/1/6 682/1/6
f 675/2/6 676/2/6 683/2/6
f 682/1/6 675/1/6 683/1/6
f 683/2/6 676/2/6 684/2/6
f 671/2/6 677/2/6 685/2/6
f 685/2/6 677/2/6 686/2/6
f 678/2/6 679/2/6 687/2/6
f 687/2/6 679/2/6 688/2/6
f 680/2/6 681/2/6 689/2/6
f 689/2/6 681/2/6 690/2/6
f 682/2/6 683/2/6 691/2/6
f 691/2/6 683/2/6 692/2/6
f 686/2/6 687/2/6 695/2/6
f 695/2/6 687/2/6 696/2/6
f 688/2/6 689/2/6 697/2/6
f 697/2/6 689/2/6 698/2/6
f 690/2/6 691/2/6 699/2/6
f 699/2/6 691/2/6 700/2/6
f 692/1/6 693/1/6 701/1/6
f 701/1/6 693/1/6 702/1/6
f 694/2/6 695/2/6 704/2/6
f 704/2/6 695/2/6 705/2/6
f 696/1/6 697/1/6 706/1/6
f 706/1/6 697/1/6 707/1/6
f 698/1/6 699/1/6 708/1/6
f 708/1/6 699/1/6 709/1/6
f 700/1/6 701/1/6 710/1/6
f 710/1/6 701/1/6 711/1/6
f 704/2/6 705/2/6 713/2/6
f 703/2/6 704/2/6 713/2/6
f 710/1/6 711/1/6 714/1/6
f 713/2/6 705/2/6 714/2/6
f 709/1/6 710/1/6 714/1/6
f 707/1/6 708/1/6 714/1/6
f 708/1/6 709/1/6 714/1/6
f 705/1/6 706/1/6 714/1/6
f 706/1/6 707/1/6 714/1/6
f 711/2/6 712/2/6 715/2/6
f 714/1/6 711/1/6 715/1/6
f 715/2/6 712/2/6 716/2/6
f 703/2/6 713/2/6 718/2/6
f 713/1/6 714/1/6 719/1/6
f 714/1/6 715/1/6 719/1/6
f 718/2/6 713/2/6 719/2/6
f 715/1/6 716/1/6 719/1/6
f 719/1/6 716/1/6 720/1/6
f 720/1/6 716/1/6 721/1/6
f 716/2/6 712/2/6 722/2/6
f 721/1/6 716/1/6 722/1/6
f 722/2/6 712/2/6 723/2/6
f 717/2/6 718/2/6 725/2/6
f 718/1/6 719/1/6 726/1/6
f 725/2/6 718/2/6 726/2/6
f 719/1/6 720/1/6 726/1/6
f 726/1/6 720/1/6 727/1/6
f 727/1/6 720/1/6 728/1/6
f 728/1/6 720/1/6 729/1/6
f 722/1/6 723/1/6 730/1/6
f 721/1/6 722/1/6 730/1/6
f 730/1/6 723/1/6 731/1/6
f 731/1/6 723/1/6 732/1/6
f 723/2/6 724/2/6 733/2/6
f 732/1/6 723/1/6 733/1/6
f 733/2/6 724/2/6 734/2/6
f 726/2/6 727/2/6 736/2/6
f 727/1/6 728/1/6 737/1/6
f 736/2/6 727/2/6 737/2/6
f 737/1/6 728/1/6 738/1/6
f 729/1/6 730/1/6 739/1/6
f 739/1/6 730/1/6 740/1/6
f 731/1/6 732/1/6 741/1/6
f 732/2/6 733/2/6 742/2/6
f 741/1/6 732/1/6 742/1/6
f 742/2/6 733/2/6 743/2/6
f 735/2/6 736/2/6 746/2/6
f 737/1/6 738/1/6 747/1/6
f 736/1/6 737/1/6 747/1/6
f 746/2/6 736/2/6 747/2/6
f 738/1/6 739/1/6 747/1/6
f 747/1/6 739/1/6 748/1/6
f 742/1/6 743/1/6 749/1/6
f 740/1/6 741/1/6 749/1/6
f 741/1/6 742/1/6 749/1/6
f 743/2/6 744/2/6 750/2/6
f 749/1/6 743/1/6 750/1/6
f 750/2/6 744/2/6 751/2/6
f 748/1/6 749/1/6 753/1/6
f 750/1/6 751/1/6 753/1/6
f 749/1/6 750/1/6 753/1/6
f 747/1/6 748/1/6 753/1/6
f 746/1/6 747/1/6 753/1/6
f 753/1/6 751/1/6 754/1/6
f 754/1/6 751/1/6 755/1/6
f 755/1/6 751/1/6 756/1/6
f 745/2/6 746/2/6 757/2/6
f 746/1/6 753/1/6 757/1/6
f 757/1/6 753/1/6 758/1/6
f 754/1/6 755/1/6 759/1/6
f 759/1/6 755/1/6 760/1/6
f 756/1/6 751/1/6 761/1/6
f 751/2/6 752/2/6 762/2/6
f 761/1/6 751/1/6 762/1/6
f 745/2/6 757/2/6 763/2/6
f 762/2/6 752/2/6 768/2/6
f 745/2/6 763/2/6 769/2/6
f 763/1/6 764/1/6 770/1/6
f 769/2/6 763/2/6 770/2/6
f 770/1/6 764/1/6 771/1/6
f 771/1/6 764/1/6 772/1/6
f 765/1/6 766/1/6 773/1/6
f 773/1/6 766/1/6 774/1/6
f 767/1/6 768/1/6 775/1/6
f 775/1/6 768/1/6 776/1/6
f 768/2/6 752/2/6 777/2/6
f 776/1/6 768/1/6 777/1/6
f 777/2/6 752/2/6 778/2/6
f 770/2/6 771/2/6 779/2/6
f 771/1/6 772/1/6 780/1/6
f 779/2/6 771/2/6 780/2/6
f 773/1/6 774/1/6 780/1/6
f 774/1/6 775/1/6 780/1/6
f 775/1/6 776/1/6 780/1/6
f 772/1/6 773/1/6 780/1/6
f 780/1/6 776/1/6 781/1/6
f 781/1/6 776/1/6 782/1/6
f 776/2/6 777/2/6 783/2/6
f 782/1/6 776/1/6 783/1/6
f 783/2/6 777/2/6 784/2/6
f 780/2/6 781/2/6 785/2/6
f 781/1/6 782/1/6 786/1/6
f 785/2/6 781/2/6 786/2/6
f 786/1/6 782/1/6 787/1/6
f 787/1/6 782/1/6 788/1/6
f 782/2/6 783/2/6 789/2/6
f 788/1/6 782/1/6 789/1/6
f 789/2/6 783/2/6 790/2/6
f 786/2/6 787/2/6 791/2/6
f 787/1/6 788/1/6 792/1/6
f 791/2/6 787/2/6 792/2/6
f 788/2/6 789/2/6 793/2/6
f 792/1/6 788/1/6 793/1/6
f 793/2/6 789/2/6 794/2/6
f 792/2/6 793/2/6 795/2/6
f 795/2/6 793/2/6 796/2/6
