# MagicaVoxel @ ephtracy

# material
mtllib ferocious_skeleton.mtl
usemtl palette

# normals
vn -1 0 0
vn 1 0 0
vn 0 0 1
vn 0 0 -1
vn 0 -1 0
vn 0 1 0

# texcoords
vt 0.958984 0.5
vt 0.962891 0.5

# verts
v -7 0 -2
v -7 0 -6
v -7 1 -2
v -7 1 -6
v -6 0 1
v -6 0 -0
v -6 0 -1
v -6 0 -2
v -6 0 -6
v -6 0 -7
v -6 1 1
v -6 1 -0
v -6 1 -1
v -6 1 -2
v -6 1 -6
v -6 1 -7
v -5 0 3
v -5 0 1
v -5 0 -0
v -5 0 -1
v -5 0 -7
v -5 0 -8
v -5 1 3
v -5 1 1
v -5 1 -0
v -5 1 -1
v -5 1 -7
v -5 1 -8
v -4 0 7
v -4 0 3
v -4 0 -8
v -4 0 -9
v -4 1 7
v -4 1 3
v -4 1 -8
v -4 1 -9
v -3 0 8
v -3 0 7
v -3 0 -4
v -3 0 -5
v -3 0 -9
v -3 0 -10
v -3 1 8
v -3 1 7
v -3 1 -4
v -3 1 -5
v -3 1 -9
v -3 1 -10
v -2 0 9
v -2 0 8
v -2 0 4
v -2 0 3
v -2 0 -3
v -2 0 -4
v -2 1 9
v -2 1 8
v -2 1 4
v -2 1 3
v -2 1 -3
v -2 1 -4
v -1 0 6
v -1 0 5
v -1 0 -0
v -1 0 -1
v -1 0 -4
v -1 0 -5
v -1 1 6
v -1 1 5
v -1 1 -0
v -1 1 -1
v -1 1 -4
v -1 1 -5
v 0 0 4
v 0 0 3
v 0 1 4
v 0 1 3
v 1 0 6
v 1 0 5
v 1 0 1
v 1 0 -0
v 1 0 -1
v 1 0 -2
v 1 1 6
v 1 1 5
v 1 1 1
v 1 1 -0
v 1 1 -1
v 1 1 -2
v 2 0 -0
v 2 0 -1
v 2 0 -4
v 2 0 -5
v 2 1 -0
v 2 1 -1
v 2 1 -4
v 2 1 -5
v 3 0 6
v 3 0 5
v 3 0 4
v 3 0 3
v 3 0 -3
v 3 0 -4
v 3 1 6
v 3 1 5
v 3 1 4
v 3 1 3
v 3 1 -3
v 3 1 -4
v 4 0 -4
v 4 0 -5
v 4 1 -4
v 4 1 -5
v -4 0 -4
v -4 0 -5
v -4 1 -4
v -4 1 -5
v -3 0 6
v -3 0 3
v -3 0 -3
v -3 0 -4
v -3 1 6
v -3 1 3
v -3 1 -3
v -3 1 -4
v -2 0 -0
v -2 0 -1
v -2 0 -4
v -2 0 -5
v -2 1 -0
v -2 1 -1
v -2 1 -4
v -2 1 -5
v -1 0 4
v -1 0 3
v -1 0 1
v -1 0 -0
v -1 0 -1
v -1 0 -2
v -1 1 4
v -1 1 3
v -1 1 1
v -1 1 -0
v -1 1 -1
v -1 1 -2
v 0 0 6
v 0 0 5
v 0 1 6
v 0 1 5
v 1 0 4
v 1 0 3
v 1 0 -0
v 1 0 -1
v 1 0 -4
v 1 0 -5
v 1 1 4
v 1 1 3
v 1 1 -0
v 1 1 -1
v 1 1 -4
v 1 1 -5
v 2 0 9
v 2 0 8
v 2 0 6
v 2 0 5
v 2 0 -3
v 2 0 -4
v 2 1 9
v 2 1 8
v 2 1 6
v 2 1 5
v 2 1 -3
v 2 1 -4
v 3 0 8
v 3 0 7
v 3 0 -4
v 3 0 -5
v 3 0 -9
v 3 0 -10
v 3 1 8
v 3 1 7
v 3 1 -4
v 3 1 -5
v 3 1 -9
v 3 1 -10
v 4 0 7
v 4 0 5
v 4 0 4
v 4 0 3
v 4 0 -8
v 4 0 -9
v 4 1 7
v 4 1 5
v 4 1 4
v 4 1 3
v 4 1 -8
v 4 1 -9
v 5 0 3
v 5 0 1
v 5 0 -0
v 5 0 -1
v 5 0 -7
v 5 0 -8
v 5 1 3
v 5 1 1
v 5 1 -0
v 5 1 -1
v 5 1 -7
v 5 1 -8
v 6 0 1
v 6 0 -0
v 6 0 -1
v 6 0 -2
v 6 0 -6
v 6 0 -7
v 6 1 1
v 6 1 -0
v 6 1 -1
v 6 1 -2
v 6 1 -6
v 6 1 -7
v 7 0 -2
v 7 0 -6
v 7 1 -2
v 7 1 -6
v -2 0 9
v -2 1 9
v -1 0 9
v -1 1 9
v 1 0 9
v 1 1 9
v 2 0 9
v 2 1 9
v -3 0 8
v -3 1 8
v -2 0 8
v -2 1 8
v 2 0 8
v 2 1 8
v 3 0 8
v 3 1 8
v -4 0 7
v -4 1 7
v -3 0 7
v -3 1 7
v 3 0 7
v 3 1 7
v 4 0 7
v 4 1 7
v -2 0 4
v -2 1 4
v -1 0 4
v -1 1 4
v 0 0 4
v 0 1 4
v 1 0 4
v 1 1 4
v -5 0 3
v -5 1 3
v -4 0 3
v -4 1 3
v -3 0 3
v -3 1 3
v -2 0 3
v -2 1 3
v -1 0 3
v -1 1 3
v 0 0 3
v 0 1 3
v 1 0 3
v 1 1 3
v 3 0 3
v 3 1 3
v 4 0 3
v 4 1 3
v 5 0 3
v 5 1 3
v -6 0 1
v -6 1 1
v -5 0 1
v -5 1 1
v 5 0 1
v 5 1 1
v 6 0 1
v 6 1 1
v -1 0 -0
v -1 1 -0
v 1 0 -0
v 1 1 -0
v -6 0 -1
v -6 1 -1
v -5 0 -1
v -5 1 -1
v -2 0 -1
v -2 1 -1
v -1 0 -1
v -1 1 -1
v 1 0 -1
v 1 1 -1
v 2 0 -1
v 2 1 -1
v 5 0 -1
v 5 1 -1
v 6 0 -1
v 6 1 -1
v -7 0 -2
v -7 1 -2
v -6 0 -2
v -6 1 -2
v -1 0 -2
v -1 1 -2
v 1 0 -2
v 1 1 -2
v 6 0 -2
v 6 1 -2
v 7 0 -2
v 7 1 -2
v -3 0 -4
v -3 1 -4
v -2 0 -4
v -2 1 -4
v 2 0 -4
v 2 1 -4
v 3 0 -4
v 3 1 -4
v -4 0 -5
v -4 1 -5
v -3 0 -5
v -3 1 -5
v -2 0 -5
v -2 1 -5
v -1 0 -5
v -1 1 -5
v 1 0 -5
v 1 1 -5
v 2 0 -5
v 2 1 -5
v 3 0 -5
v 3 1 -5
v 4 0 -5
v 4 1 -5
v -3 0 6
v -3 1 6
v -1 0 6
v -1 1 6
v 0 0 6
v 0 1 6
v 1 0 6
v 1 1 6
v 2 0 6
v 2 1 6
v 3 0 6
v 3 1 6
v -1 0 5
v -1 1 5
v 0 0 5
v 0 1 5
v 1 0 5
v 1 1 5
v 2 0 5
v 2 1 5
v -1 0 1
v -1 1 1
v 1 0 1
v 1 1 1
v -6 0 -0
v -6 1 -0
v -5 0 -0
v -5 1 -0
v -2 0 -0
v -2 1 -0
v -1 0 -0
v -1 1 -0
v 1 0 -0
v 1 1 -0
v 2 0 -0
v 2 1 -0
v 5 0 -0
v 5 1 -0
v 6 0 -0
v 6 1 -0
v -1 0 -1
v -1 1 -1
v 1 0 -1
v 1 1 -1
v -3 0 -3
v -3 1 -3
v -2 0 -3
v -2 1 -3
v 2 0 -3
v 2 1 -3
v 3 0 -3
v 3 1 -3
v -4 0 -4
v -4 1 -4
v -3 0 -4
v -3 1 -4
v -2 0 -4
v -2 1 -4
v -1 0 -4
v -1 1 -4
v 1 0 -4
v 1 1 -4
v 2 0 -4
v 2 1 -4
v 3 0 -4
v 3 1 -4
v 4 0 -4
v 4 1 -4
v -7 0 -6
v -7 1 -6
v -6 0 -6
v -6 1 -6
v 6 0 -6
v 6 1 -6
v 7 0 -6
v 7 1 -6
v -6 0 -7
v -6 1 -7
v -5 0 -7
v -5 1 -7
v 5 0 -7
v 5 1 -7
v 6 0 -7
v 6 1 -7
v -5 0 -8
v -5 1 -8
v -4 0 -8
v -4 1 -8
v 4 0 -8
v 4 1 -8
v 5 0 -8
v 5 1 -8
v -4 0 -9
v -4 1 -9
v -3 0 -9
v -3 1 -9
v 3 0 -9
v 3 1 -9
v 4 0 -9
v 4 1 -9
v -3 0 -10
v -3 1 -10
v 3 0 -10
v 3 1 -10
v -2 0 9
v -1 0 9
v 1 0 9
v 2 0 9
v -3 0 8
v -2 0 8
v -1 0 8
v 1 0 8
v 2 0 8
v 3 0 8
v -4 0 7
v -3 0 7
v -2 0 7
v 2 0 7
v 3 0 7
v 4 0 7
v -3 0 6
v -1 0 6
v 0 0 6
v 1 0 6
v 2 0 6
v 3 0 6
v -1 0 5
v 0 0 5
v 1 0 5
v 2 0 5
v 3 0 5
v 4 0 5
v -2 0 4
v -1 0 4
v 0 0 4
v 1 0 4
v 3 0 4
v 4 0 4
v -5 0 3
v -4 0 3
v -3 0 3
v -2 0 3
v -1 0 3
v 0 0 3
v 1 0 3
v 3 0 3
v 4 0 3
v 5 0 3
v -4 0 2
v -3 0 2
v 3 0 2
v 4 0 2
v -6 0 1
v -5 0 1
v -4 0 1
v -1 0 1
v 1 0 1
v 4 0 1
v 5 0 1
v 6 0 1
v -6 0 -0
v -5 0 -0
v -4 0 -0
v -2 0 -0
v -1 0 -0
v 1 0 -0
v 2 0 -0
v 4 0 -0
v 5 0 -0
v 6 0 -0
v -6 0 -1
v -5 0 -1
v -4 0 -1
v -2 0 -1
v -1 0 -1
v 1 0 -1
v 2 0 -1
v 4 0 -1
v 5 0 -1
v 6 0 -1
v -7 0 -2
v -6 0 -2
v -5 0 -2
v -1 0 -2
v 1 0 -2
v 5 0 -2
v 6 0 -2
v 7 0 -2
v -3 0 -3
v -2 0 -3
v 2 0 -3
v 3 0 -3
v -4 0 -4
v -3 0 -4
v -2 0 -4
v -1 0 -4
v 1 0 -4
v 2 0 -4
v 3 0 -4
v 4 0 -4
v -4 0 -5
v -3 0 -5
v -2 0 -5
v -1 0 -5
v 1 0 -5
v 2 0 -5
v 3 0 -5
v 4 0 -5
v -7 0 -6
v -6 0 -6
v -5 0 -6
v 5 0 -6
v 6 0 -6
v 7 0 -6
v -6 0 -7
v -5 0 -7
v -4 0 -7
v 4 0 -7
v 5 0 -7
v 6 0 -7
v -5 0 -8
v -4 0 -8
v -3 0 -8
v 3 0 -8
v 4 0 -8
v 5 0 -8
v -4 0 -9
v -3 0 -9
v 3 0 -9
v 4 0 -9
v -3 0 -10
v 3 0 -10
v -2 1 9
v -1 1 9
v 1 1 9
v 2 1 9
v -3 1 8
v -2 1 8
v -1 1 8
v 1 1 8
v 2 1 8
v 3 1 8
v -4 1 7
v -3 1 7
v -2 1 7
v 2 1 7
v 3 1 7
v 4 1 7
v -3 1 6
v -1 1 6
v 0 1 6
v 1 1 6
v 2 1 6
v 3 1 6
v -1 1 5
v 0 1 5
v 1 1 5
v 2 1 5
v 3 1 5
v 4 1 5
v -2 1 4
v -1 1 4
v 0 1 4
v 1 1 4
v 3 1 4
v 4 1 4
v -5 1 3
v -4 1 3
v -3 1 3
v -2 1 3
v -1 1 3
v 0 1 3
v 1 1 3
v 3 1 3
v 4 1 3
v 5 1 3
v -4 1 2
v -3 1 2
v 3 1 2
v 4 1 2
v -6 1 1
v -5 1 1
v -4 1 1
v -1 1 1
v 1 1 1
v 4 1 1
v 5 1 1
v 6 1 1
v -6 1 -0
v -5 1 -0
v -4 1 -0
v -2 1 -0
v -1 1 -0
v 1 1 -0
v 2 1 -0
v 4 1 -0
v 5 1 -0
v 6 1 -0
v -6 1 -1
v -5 1 -1
v -4 1 -1
v -2 1 -1
v -1 1 -1
v 1 1 -1
v 2 1 -1
v 4 1 -1
v 5 1 -1
v 6 1 -1
v -7 1 -2
v -6 1 -2
v -5 1 -2
v -1 1 -2
v 1 1 -2
v 5 1 -2
v 6 1 -2
v 7 1 -2
v -3 1 -3
v -2 1 -3
v 2 1 -3
v 3 1 -3
v -4 1 -4
v -3 1 -4
v -2 1 -4
v -1 1 -4
v 1 1 -4
v 2 1 -4
v 3 1 -4
v 4 1 -4
v -4 1 -5
v -3 1 -5
v -2 1 -5
v -1 1 -5
v 1 1 -5
v 2 1 -5
v 3 1 -5
v 4 1 -5
v -7 1 -6
v -6 1 -6
v -5 1 -6
v 5 1 -6
v 6 1 -6
v 7 1 -6
v -6 1 -7
v -5 1 -7
v -4 1 -7
v 4 1 -7
v 5 1 -7
v 6 1 -7
v -5 1 -8
v -4 1 -8
v -3 1 -8
v 3 1 -8
v 4 1 -8
v 5 1 -8
v -4 1 -9
v -3 1 -9
v 3 1 -9
v 4 1 -9
v -3 1 -10
v 3 1 -10

# faces
f 3/2/1 2/2/1 1/2/1
f 4/2/1 2/2/1 3/2/1
f 11/2/1 6/2/1 5/2/1
f 12/2/1 6/2/1 11/2/1
f 13/2/1 8/2/1 7/2/1
f 14/2/1 8/2/1 13/2/1
f 15/2/1 10/2/1 9/2/1
f 16/2/1 10/2/1 15/2/1
f 23/2/1 18/2/1 17/2/1
f 24/2/1 18/2/1 23/2/1
f 25/2/1 20/2/1 19/2/1
f 26/2/1 20/2/1 25/2/1
f 27/2/1 22/2/1 21/2/1
f 28/2/1 22/2/1 27/2/1
f 33/2/1 30/2/1 29/2/1
f 34/2/1 30/2/1 33/2/1
f 35/2/1 32/2/1 31/2/1
f 36/2/1 32/2/1 35/2/1
f 43/2/1 38/2/1 37/2/1
f 44/2/1 38/2/1 43/2/1
f 45/1/1 40/1/1 39/1/1
f 46/1/1 40/1/1 45/1/1
f 47/2/1 42/2/1 41/2/1
f 48/2/1 42/2/1 47/2/1
f 55/2/1 50/2/1 49/2/1
f 56/2/1 50/2/1 55/2/1
f 57/1/1 52/1/1 51/1/1
f 58/1/1 52/1/1 57/1/1
f 59/1/1 54/1/1 53/1/1
f 60/1/1 54/1/1 59/1/1
f 67/2/1 62/2/1 61/2/1
f 68/2/1 62/2/1 67/2/1
f 69/1/1 64/1/1 63/1/1
f 70/1/1 64/1/1 69/1/1
f 71/1/1 66/1/1 65/1/1
f 72/1/1 66/1/1 71/1/1
f 75/1/1 74/1/1 73/1/1
f 76/1/1 74/1/1 75/1/1
f 83/2/1 78/2/1 77/2/1
f 84/2/1 78/2/1 83/2/1
f 85/1/1 80/1/1 79/1/1
f 86/1/1 80/1/1 85/1/1
f 87/1/1 82/1/1 81/1/1
f 88/1/1 82/1/1 87/1/1
f 93/1/1 90/1/1 89/1/1
f 94/1/1 90/1/1 93/1/1
f 95/1/1 92/1/1 91/1/1
f 96/1/1 92/1/1 95/1/1
f 103/2/1 98/2/1 97/2/1
f 104/1/1 99/1/1 98/1/1
f 104/2/1 98/2/1 103/2/1
f 105/2/1 100/2/1 99/2/1
f 105/1/1 99/1/1 104/1/1
f 106/2/1 100/2/1 105/2/1
f 107/1/1 102/1/1 101/1/1
f 108/1/1 102/1/1 107/1/1
f 111/1/1 110/1/1 109/1/1
f 112/1/1 110/1/1 111/1/1
f 113/1/2 114/1/2 115/1/2
f 115/1/2 114/1/2 116/1/2
f 117/2/2 118/2/2 121/2/2
f 121/2/2 118/2/2 122/2/2
f 119/1/2 120/1/2 123/1/2
f 123/1/2 120/1/2 124/1/2
f 125/1/2 126/1/2 129/1/2
f 129/1/2 126/1/2 130/1/2
f 127/1/2 128/1/2 131/1/2
f 131/1/2 128/1/2 132/1/2
f 133/1/2 134/1/2 139/1/2
f 139/1/2 134/1/2 140/1/2
f 135/1/2 136/1/2 141/1/2
f 141/1/2 136/1/2 142/1/2
f 137/1/2 138/1/2 143/1/2
f 143/1/2 138/1/2 144/1/2
f 145/2/2 146/2/2 147/2/2
f 147/2/2 146/2/2 148/2/2
f 149/1/2 150/1/2 155/1/2
f 155/1/2 150/1/2 156/1/2
f 151/1/2 152/1/2 157/1/2
f 157/1/2 152/1/2 158/1/2
f 153/1/2 154/1/2 159/1/2
f 159/1/2 154/1/2 160/1/2
f 161/2/2 162/2/2 167/2/2
f 167/2/2 162/2/2 168/2/2
f 163/2/2 164/2/2 169/2/2
f 169/2/2 164/2/2 170/2/2
f 165/1/2 166/1/2 171/1/2
f 171/1/2 166/1/2 172/1/2
f 173/2/2 174/2/2 179/2/2
f 179/2/2 174/2/2 180/2/2
f 175/1/2 176/1/2 181/1/2
f 181/1/2 176/1/2 182/1/2
f 177/2/2 178/2/2 183/2/2
f 183/2/2 178/2/2 184/2/2
f 185/2/2 186/2/2 191/2/2
f 186/1/2 187/1/2 192/1/2
f 191/2/2 186/2/2 192/2/2
f 187/2/2 188/2/2 193/2/2
f 192/1/2 187/1/2 193/1/2
f 193/2/2 188/2/2 194/2/2
f 189/2/2 190/2/2 195/2/2
f 195/2/2 190/2/2 196/2/2
f 197/2/2 198/2/2 203/2/2
f 203/2/2 198/2/2 204/2/2
f 199/2/2 200/2/2 205/2/2
f 205/2/2 200/2/2 206/2/2
f 201/2/2 202/2/2 207/2/2
f 207/2/2 202/2/2 208/2/2
f 209/2/2 210/2/2 215/2/2
f 215/2/2 210/2/2 216/2/2
f 211/2/2 212/2/2 217/2/2
f 217/2/2 212/2/2 218/2/2
f 213/2/2 214/2/2 219/2/2
f 219/2/2 214/2/2 220/2/2
f 221/2/2 222/2/2 223/2/2
f 223/2/2 222/2/2 224/2/2
f 227/2/3 226/2/3 225/2/3
f 228/2/3 226/2/3 227/2/3
f 229/1/3 228/1/3 227/1/3
f 230/1/3 228/1/3 229/1/3
f 231/2/3 230/2/3 229/2/3
f 232/2/3 230/2/3 231/2/3
f 235/2/3 234/2/3 233/2/3
f 236/2/3 234/2/3 235/2/3
f 239/2/3 238/2/3 237/2/3
f 240/2/3 238/2/3 239/2/3
f 243/2/3 242/2/3 241/2/3
f 244/2/3 242/2/3 243/2/3
f 247/2/3 246/2/3 245/2/3
f 248/2/3 246/2/3 247/2/3
f 251/1/3 250/1/3 249/1/3
f 252/1/3 250/1/3 251/1/3
f 255/1/3 254/1/3 253/1/3
f 256/1/3 254/1/3 255/1/3
f 259/2/3 258/2/3 257/2/3
f 260/2/3 258/2/3 259/2/3
f 263/1/3 262/1/3 261/1/3
f 264/1/3 262/1/3 263/1/3
f 267/1/3 266/1/3 265/1/3
f 268/1/3 266/1/3 267/1/3
f 271/1/3 270/1/3 269/1/3
f 272/1/3 270/1/3 271/1/3
f 275/2/3 274/2/3 273/2/3
f 276/2/3 274/2/3 275/2/3
f 279/2/3 278/2/3 277/2/3
f 280/2/3 278/2/3 279/2/3
f 283/2/3 282/2/3 281/2/3
f 284/2/3 282/2/3 283/2/3
f 287/1/3 286/1/3 285/1/3
f 288/1/3 286/1/3 287/1/3
f 291/2/3 290/2/3 289/2/3
f 292/2/3 290/2/3 291/2/3
f 295/1/3 294/1/3 293/1/3
f 296/1/3 294/1/3 295/1/3
f 299/1/3 298/1/3 297/1/3
f 300/1/3 298/1/3 299/1/3
f 303/2/3 302/2/3 301/2/3
f 304/2/3 302/2/3 303/2/3
f 307/2/3 306/2/3 305/2/3
f 308/2/3 306/2/3 307/2/3
f 311/1/3 310/1/3 309/1/3
f 312/1/3 310/1/3 311/1/3
f 315/2/3 314/2/3 313/2/3
f 316/2/3 314/2/3 315/2/3
f 319/1/3 318/1/3 317/1/3
f 320/1/3 318/1/3 319/1/3
f 323/1/3 322/1/3 321/1/3
f 324/1/3 322/1/3 323/1/3
f 327/1/3 326/1/3 325/1/3
f 328/1/3 326/1/3 327/1/3
f 331/1/3 330/1/3 329/1/3
f 332/1/3 330/1/3 331/1/3
f 335/1/3 334/1/3 333/1/3
f 336/1/3 334/1/3 335/1/3
f 339/1/3 338/1/3 337/1/3
f 340/1/3 338/1/3 339/1/3
f 341/1/4 342/1/4 343/1/4
f 343/1/4 342/1/4 344/1/4
f 345/1/4 346/1/4 347/1/4
f 347/1/4 346/1/4 348/1/4
f 349/1/4 350/1/4 351/1/4
f 351/1/4 350/1/4 352/1/4
f 353/2/4 354/2/4 355/2/4
f 355/2/4 354/2/4 356/2/4
f 357/2/4 358/2/4 359/2/4
f 359/2/4 358/2/4 360/2/4
f 361/1/4 362/1/4 363/1/4
f 363/1/4 362/1/4 364/1/4
f 365/2/4 366/2/4 367/2/4
f 367/2/4 366/2/4 368/2/4
f 369/1/4 370/1/4 371/1/4
f 371/1/4 370/1/4 372/1/4
f 373/1/4 374/1/4 375/1/4
f 375/1/4 374/1/4 376/1/4
f 377/2/4 378/2/4 379/2/4
f 379/2/4 378/2/4 380/2/4
f 381/1/4 382/1/4 383/1/4
f 383/1/4 382/1/4 384/1/4
f 385/1/4 386/1/4 387/1/4
f 387/1/4 386/1/4 388/1/4
f 389/1/4 390/1/4 391/1/4
f 391/1/4 390/1/4 392/1/4
f 393/1/4 394/1/4 395/1/4
f 395/1/4 394/1/4 396/1/4
f 397/1/4 398/1/4 399/1/4
f 399/1/4 398/1/4 400/1/4
f 401/1/4 402/1/4 403/1/4
f 403/1/4 402/1/4 404/1/4
f 405/1/4 406/1/4 407/1/4
f 407/1/4 406/1/4 408/1/4
f 409/2/4 410/2/4 411/2/4
f 411/2/4 410/2/4 412/2/4
f 413/2/4 414/2/4 415/2/4
f 415/2/4 414/2/4 416/2/4
f 417/2/4 418/2/4 419/2/4
f 419/2/4 418/2/4 420/2/4
f 421/2/4 422/2/4 423/2/4
f 423/2/4 422/2/4 424/2/4
f 425/2/4 426/2/4 427/2/4
f 427/2/4 426/2/4 428/2/4
f 429/2/4 430/2/4 431/2/4
f 431/2/4 430/2/4 432/2/4
f 433/2/4 434/2/4 435/2/4
f 435/2/4 434/2/4 436/2/4
f 437/2/4 438/2/4 439/2/4
f 439/2/4 438/2/4 440/2/4
f 441/2/4 442/2/4 443/2/4
f 443/2/4 442/2/4 444/2/4
f 450/2/5 446/2/5 445/2/5
f 451/1/5 447/1/5 446/1/5
f 451/2/5 446/2/5 450/2/5
f 452/2/5 448/2/5 447/2/5
f 452/1/5 447/1/5 451/1/5
f 453/2/5 448/2/5 452/2/5
f 456/2/5 450/2/5 449/2/5
f 457/1/5 451/1/5 450/1/5
f 457/1/5 452/1/5 451/1/5
f 457/2/5 450/2/5 456/2/5
f 457/1/5 453/1/5 452/1/5
f 458/2/5 454/2/5 453/2/5
f 458/1/5 453/1/5 457/1/5
f 459/2/5 454/2/5 458/2/5
f 461/2/5 456/2/5 455/2/5
f 461/1/5 457/1/5 456/1/5
f 461/1/5 459/1/5 458/1/5
f 461/1/5 458/1/5 457/1/5
f 462/1/5 459/1/5 461/1/5
f 463/1/5 459/1/5 462/1/5
f 464/1/5 459/1/5 463/1/5
f 465/1/5 459/1/5 464/1/5
f 466/2/5 460/2/5 459/2/5
f 466/1/5 459/1/5 465/1/5
f 467/2/5 463/2/5 462/2/5
f 468/2/5 463/2/5 467/2/5
f 469/2/5 465/2/5 464/2/5
f 470/2/5 465/2/5 469/2/5
f 471/2/5 460/2/5 466/2/5
f 472/2/5 460/2/5 471/2/5
f 477/1/5 472/1/5 471/1/5
f 478/1/5 472/1/5 477/1/5
f 480/2/5 461/2/5 455/2/5
f 481/2/5 461/2/5 480/2/5
f 482/1/5 474/1/5 473/1/5
f 483/1/5 474/1/5 482/1/5
f 484/1/5 476/1/5 475/1/5
f 485/1/5 476/1/5 484/1/5
f 486/2/5 478/2/5 477/2/5
f 487/2/5 478/2/5 486/2/5
f 489/2/5 481/2/5 480/2/5
f 489/2/5 480/2/5 479/2/5
f 490/1/5 486/1/5 485/1/5
f 490/2/5 481/2/5 489/2/5
f 490/1/5 483/1/5 482/1/5
f 490/1/5 484/1/5 483/1/5
f 490/1/5 485/1/5 484/1/5
f 490/1/5 482/1/5 481/1/5
f 491/2/5 487/2/5 486/2/5
f 491/1/5 486/1/5 490/1/5
f 491/2/5 488/2/5 487/2/5
f 492/2/5 488/2/5 491/2/5
f 494/2/5 489/2/5 479/2/5
f 495/1/5 490/1/5 489/1/5
f 495/1/5 491/1/5 490/1/5
f 495/2/5 489/2/5 494/2/5
f 495/1/5 492/1/5 491/1/5
f 496/1/5 492/1/5 495/1/5
f 497/1/5 492/1/5 496/1/5
f 498/2/5 488/2/5 492/2/5
f 498/1/5 492/1/5 497/1/5
f 499/2/5 488/2/5 498/2/5
f 501/2/5 494/2/5 493/2/5
f 502/1/5 495/1/5 494/1/5
f 502/2/5 494/2/5 501/2/5
f 502/1/5 496/1/5 495/1/5
f 503/1/5 496/1/5 502/1/5
f 504/1/5 496/1/5 503/1/5
f 505/1/5 496/1/5 504/1/5
f 506/1/5 499/1/5 498/1/5
f 506/1/5 498/1/5 497/1/5
f 507/1/5 499/1/5 506/1/5
f 508/1/5 499/1/5 507/1/5
f 509/2/5 500/2/5 499/2/5
f 509/1/5 499/1/5 508/1/5
f 510/2/5 500/2/5 509/2/5
f 512/2/5 503/2/5 502/2/5
f 513/1/5 504/1/5 503/1/5
f 513/2/5 503/2/5 512/2/5
f 514/1/5 504/1/5 513/1/5
f 515/1/5 506/1/5 505/1/5
f 516/1/5 506/1/5 515/1/5
f 517/1/5 508/1/5 507/1/5
f 518/2/5 509/2/5 508/2/5
f 518/1/5 508/1/5 517/1/5
f 519/2/5 509/2/5 518/2/5
f 522/2/5 512/2/5 511/2/5
f 523/1/5 514/1/5 513/1/5
f 523/1/5 513/1/5 512/1/5
f 523/2/5 512/2/5 522/2/5
f 523/1/5 515/1/5 514/1/5
f 524/1/5 515/1/5 523/1/5
f 525/1/5 519/1/5 518/1/5
f 525/1/5 517/1/5 516/1/5
f 525/1/5 518/1/5 517/1/5
f 526/2/5 520/2/5 519/2/5
f 526/1/5 519/1/5 525/1/5
f 527/2/5 520/2/5 526/2/5
f 529/1/5 525/1/5 524/1/5
f 529/1/5 527/1/5 526/1/5
f 529/1/5 526/1/5 525/1/5
f 529/1/5 524/1/5 523/1/5
f 529/1/5 523/1/5 522/1/5
f 530/1/5 527/1/5 529/1/5
f 531/1/5 527/1/5 530/1/5
f 532/1/5 527/1/5 531/1/5
f 533/1/5 529/1/5 522/1/5
f 534/1/5 529/1/5 533/1/5
f 535/1/5 531/1/5 530/1/5
f 536/1/5 531/1/5 535/1/5
f 537/1/5 531/1/5 536/1/5
f 538/1/5 531/1/5 537/1/5
f 539/1/5 527/1/5 532/1/5
f 540/1/5 527/1/5 539/1/5
f 541/1/5 533/1/5 522/1/5
f 542/1/5 535/1/5 534/1/5
f 543/1/5 535/1/5 542/1/5
f 544/1/5 537/1/5 536/1/5
f 545/1/5 537/1/5 544/1/5
f 546/1/5 539/1/5 538/1/5
f 547/1/5 539/1/5 546/1/5
f 548/1/5 527/1/5 540/1/5
f 549/2/5 522/2/5 521/2/5
f 550/1/5 548/1/5 547/1/5
f 550/2/5 522/2/5 549/2/5
f 550/1/5 547/1/5 546/1/5
f 550/1/5 545/1/5 544/1/5
f 550/1/5 541/1/5 522/1/5
f 550/1/5 546/1/5 545/1/5
f 550/1/5 543/1/5 542/1/5
f 550/1/5 544/1/5 543/1/5
f 550/1/5 542/1/5 541/1/5
f 551/1/5 548/1/5 550/1/5
f 552/1/5 527/1/5 548/1/5
f 552/1/5 548/1/5 551/1/5
f 553/2/5 528/2/5 527/2/5
f 553/1/5 527/1/5 552/1/5
f 554/2/5 528/2/5 553/2/5
f 555/2/5 551/2/5 550/2/5
f 556/1/5 552/1/5 551/1/5
f 556/2/5 551/2/5 555/2/5
f 557/1/5 552/1/5 556/1/5
f 558/1/5 552/1/5 557/1/5
f 559/2/5 553/2/5 552/2/5
f 559/1/5 552/1/5 558/1/5
f 560/2/5 553/2/5 559/2/5
f 561/2/5 557/2/5 556/2/5
f 562/1/5 558/1/5 557/1/5
f 562/2/5 557/2/5 561/2/5
f 563/1/5 558/1/5 562/1/5
f 564/1/5 558/1/5 563/1/5
f 565/2/5 559/2/5 558/2/5
f 565/1/5 558/1/5 564/1/5
f 566/2/5 559/2/5 565/2/5
f 567/2/5 563/2/5 562/2/5
f 568/1/5 564/1/5 563/1/5
f 568/2/5 563/2/5 567/2/5
f 569/2/5 565/2/5 564/2/5
f 569/1/5 564/1/5 568/1/5
f 570/2/5 565/2/5 569/2/5
f 571/2/5 569/2/5 568/2/5
f 572/2/5 569/2/5 571/2/5
f 573/2/6 574/2/6 578/2/6
f 574/1/6 575/1/6 579/1/6
f 578/2/6 574/2/6 579/2/6
f 575/2/6 576/2/6 580/2/6
f 579/1/6 575/1/6 580/1/6
f 580/2/6 576/2/6 581/2/6
f 577/2/6 578/2/6 584/2/6
f 578/1/6 579/1/6 585/1/6
f 579/1/6 580/1/6 585/1/6
f 584/2/6 578/2/6 585/2/6
f 580/1/6 581/1/6 585/1/6
f 581/2/6 582/2/6 586/2/6
f 585/1/6 581/1/6 586/1/6
f 586/2/6 582/2/6 587/2/6
f 583/2/6 584/2/6 589/2/6
f 584/1/6 585/1/6 589/1/6
f 586/1/6 587/1/6 589/1/6
f 585/1/6 586/1/6 589/1/6
f 589/1/6 587/1/6 590/1/6
f 590/1/6 587/1/6 591/1/6
f 591/1/6 587/1/6 592/1/6
f 592/1/6 587/1/6 593/1/6
f 587/2/6 588/2/6 594/2/6
f 593/1/6 587/1/6 594/1/6
f 590/2/6 591/2/6 595/2/6
f 595/2/6 591/2/6 596/2/6
f 592/2/6 593/2/6 597/2/6
f 597/2/6 593/2/6 598/2/6
f 594/2/6 588/2/6 599/2/6
f 599/2/6 588/2/6 600/2/6
f 599/1/6 600/1/6 605/1/6
f 605/1/6 600/1/6 606/1/6
f 583/2/6 589/2/6 608/2/6
f 608/2/6 589/2/6 609/2/6
f 601/1/6 602/1/6 610/1/6
f 610/1/6 602/1/6 611/1/6
f 603/1/6 604/1/6 612/1/6
f 612/1/6 604/1/6 613/1/6
f 605/2/6 606/2/6 614/2/6
f 614/2/6 606/2/6 615/2/6
f 608/2/6 609/2/6 617/2/6
f 607/2/6 608/2/6 617/2/6
f 613/1/6 614/1/6 618/1/6
f 617/2/6 609/2/6 618/2/6
f 610/1/6 611/1/6 618/1/6
f 611/1/6 612/1/6 618/1/6
f 612/1/6 613/1/6 618/1/6
f 609/1/6 610/1/6 618/1/6
f 614/2/6 615/2/6 619/2/6
f 618/1/6 614/1/6 619/1/6
f 615/2/6 616/2/6 619/2/6
f 619/2/6 616/2/6 620/2/6
f 607/2/6 617/2/6 622/2/6
f 617/1/6 618/1/6 623/1/6
f 618/1/6 619/1/6 623/1/6
f 622/2/6 617/2/6 623/2/6
f 619/1/6 620/1/6 623/1/6
f 623/1/6 620/1/6 624/1/6
f 624/1/6 620/1/6 625/1/6
f 620/2/6 616/2/6 626/2/6
f 625/1/6 620/1/6 626/1/6
f 626/2/6 616/2/6 627/2/6
f 621/2/6 622/2/6 629/2/6
f 622/1/6 623/1/6 630/1/6
f 629/2/6 622/2/6 630/2/6
f 623/1/6 624/1/6 630/1/6
f 630/1/6 624/1/6 631/1/6
f 631/1/6 624/1/6 632/1/6
f 632/1/6 624/1/6 633/1/6
f 626/1/6 627/1/6 634/1/6
f 625/1/6 626/1/6 634/1/6
f 634/1/6 627/1/6 635/1/6
f 635/1/6 627/1/6 636/1/6
f 627/2/6 628/2/6 637/2/6
f 636/1/6 627/1/6 637/1/6
f 637/2/6 628/2/6 638/2/6
f 630/2/6 631/2/6 640/2/6
f 631/1/6 632/1/6 641/1/6
f 640/2/6 631/2/6 641/2/6
f 641/1/6 632/1/6 642/1/6
f 633/1/6 634/1/6 643/1/6
f 643/1/6 634/1/6 644/1/6
f 635/1/6 636/1/6 645/1/6
f 636/2/6 637/2/6 646/2/6
f 645/1/6 636/1/6 646/1/6
f 646/2/6 637/2/6 647/2/6
f 639/2/6 640/2/6 650/2/6
f 641/1/6 642/1/6 651/1/6
f 640/1/6 641/1/6 651/1/6
f 650/2/6 640/2/6 651/2/6
f 642/1/6 643/1/6 651/1/6
f 651/1/6 643/1/6 652/1/6
f 646/1/6 647/1/6 653/1/6
f 644/1/6 645/1/6 653/1/6
f 645/1/6 646/1/6 653/1/6
f 647/2/6 648/2/6 654/2/6
f 653/1/6 647/1/6 654/1/6
f 654/2/6 648/2/6 655/2/6
f 652/1/6 653/1/6 657/1/6
f 654/1/6 655/1/6 657/1/6
f 653/1/6 654/1/6 657/1/6
f 651/1/6 652/1/6 657/1/6
f 650/1/6 651/1/6 657/1/6
f 657/1/6 655/1/6 658/1/6
f 658/1/6 655/1/6 659/1/6
f 659/1/6 655/1/6 660/1/6
f 650/1/6 657/1/6 661/1/6
f 661/1/6 657/1/6 662/1/6
f 658/1/6 659/1/6 663/1/6
f 663/1/6 659/1/6 664/1/6
f 664/1/6 659/1/6 665/1/6
f 665/1/6 659/1/6 666/1/6
f 660/1/6 655/1/6 667/1/6
f 667/1/6 655/1/6 668/1/6
f 650/1/6 661/1/6 669/1/6
f 662/1/6 663/1/6 670/1/6
f 670/1/6 663/1/6 671/1/6
f 664/1/6 665/1/6 672/1/6
f 672/1/6 665/1/6 673/1/6
f 666/1/6 667/1/6 674/1/6
f 674/1/6 667/1/6 675/1/6
f 668/1/6 655/1/6 676/1/6
f 649/2/6 650/2/6 677/2/6
f 675/1/6 676/1/6 678/1/6
f 677/2/6 650/2/6 678/2/6
f 674/1/6 675/1/6 678/1/6
f 672/1/6 673/1/6 678/1/6
f 650/1/6 669/1/6 678/1/6
f 673/1/6 674/1/6 678/1/6
f 670/1/6 671/1/6 678/1/6
f 671/1/6 672/1/6 678/1/6
f 669/1/6 670/1/6 678/1/6
f 678/1/6 676/1/6 679/1/6
f 676/1/6 655/1/6 680/1/6
f 679/1/6 676/1/6 680/1/6
f 655/2/6 656/2/6 681/2/6
f 680/1/6 655/1/6 681/1/6
f 681/2/6 656/2/6 682/2/6
f 678/2/6 679/2/6 683/2/6
f 679/1/6 680/1/6 684/1/6
f 683/2/6 679/2/6 684/2/6
f 684/1/6 680/1/6 685/1/6
f 685/1/6 680/1/6 686/1/6
f 680/2/6 681/2/6 687/2/6
f 686/1/6 680/1/6 687/1/6
f 687/2/6 681/2/6 688/2/6
f 684/2/6 685/2/6 689/2/6
f 685/1/6 686/1/6 690/1/6
f 689/2/6 685/2/6 690/2/6
f 690/1/6 686/1/6 691/1/6
f 691/1/6 686/1/6 692/1/6
f 686/2/6 687/2/6 693/2/6
f 692/1/6 686/1/6 693/1/6
f 693/2/6 687/2/6 694/2/6
f 690/2/6 691/2/6 695/2/6
f 691/1/6 692/1/6 696/1/6
f 695/2/6 691/2/6 696/2/6
f 692/2/6 693/2/6 697/2/6
f 696/1/6 692/1/6 697/1/6
f 697/2/6 693/2/6 698/2/6
f 696/2/6 697/2/6 699/2/6
f 699/2/6 697/2/6 700/2/6
