# MagicaVoxel @ ephtracy

# material
mtllib skeleton.mtl
usemtl palette

# normals
vn -1 0 0
vn 1 0 0
vn 0 0 1
vn 0 0 -1
vn 0 -1 0
vn 0 1 0

# texcoords
vt 0.958984 0.5
vt 0.962891 0.5

# verts
v -7 0 -2
v -7 0 -6
v -7 1 -2
v -7 1 -6
v -6 0 1
v -6 0 -0
v -6 0 -1
v -6 0 -2
v -6 0 -6
v -6 0 -7
v -6 1 1
v -6 1 -0
v -6 1 -1
v -6 1 -2
v -6 1 -6
v -6 1 -7
v -5 0 3
v -5 0 1
v -5 0 -0
v -5 0 -1
v -5 0 -7
v -5 0 -8
v -5 1 3
v -5 1 1
v -5 1 -0
v -5 1 -1
v -5 1 -7
v -5 1 -8
v -4 0 7
v -4 0 5
v -4 0 4
v -4 0 3
v -4 0 -8
v -4 0 -9
v -4 1 7
v -4 1 5
v -4 1 4
v -4 1 3
v -4 1 -8
v -4 1 -9
v -3 0 8
v -3 0 7
v -3 0 5
v -3 0 4
v -3 0 -9
v -3 0 -10
v -3 1 8
v -3 1 7
v -3 1 5
v -3 1 4
v -3 1 -9
v -3 1 -10
v -2 0 9
v -2 0 8
v -2 0 6
v -2 0 5
v -2 0 4
v -2 0 3
v -2 0 -3
v -2 0 -4
v -2 0 -5
v -2 0 -6
v -2 1 9
v -2 1 8
v -2 1 6
v -2 1 5
v -2 1 4
v -2 1 3
v -2 1 -3
v -2 1 -4
v -2 1 -5
v -2 1 -6
v -1 0 5
v -1 0 4
v -1 0 -0
v -1 0 -1
v -1 0 -4
v -1 0 -5
v -1 1 5
v -1 1 4
v -1 1 -0
v -1 1 -1
v -1 1 -4
v -1 1 -5
v 0 0 6
v 0 0 5
v 0 0 4
v 0 0 3
v 0 1 6
v 0 1 5
v 0 1 4
v 0 1 3
v 1 0 5
v 1 0 4
v 1 0 1
v 1 0 -0
v 1 0 -1
v 1 0 -2
v 1 1 5
v 1 1 4
v 1 1 1
v 1 1 -0
v 1 1 -1
v 1 1 -2
v 2 0 6
v 2 0 5
v 2 0 4
v 2 0 3
v 2 0 -0
v 2 0 -1
v 2 1 6
v 2 1 5
v 2 1 4
v 2 1 3
v 2 1 -0
v 2 1 -1
v 3 0 5
v 3 0 4
v 3 0 -3
v 3 0 -4
v 3 0 -5
v 3 0 -6
v 3 1 5
v 3 1 4
v 3 1 -3
v 3 1 -4
v 3 1 -5
v 3 1 -6
v 4 0 -4
v 4 0 -5
v 4 1 -4
v 4 1 -5
v -4 0 -4
v -4 0 -5
v -4 1 -4
v -4 1 -5
v -3 0 6
v -3 0 5
v -3 0 4
v -3 0 3
v -3 0 -3
v -3 0 -4
v -3 0 -5
v -3 0 -6
v -3 1 6
v -3 1 5
v -3 1 4
v -3 1 3
v -3 1 -3
v -3 1 -4
v -3 1 -5
v -3 1 -6
v -2 0 5
v -2 0 4
v -2 0 -0
v -2 0 -1
v -2 1 5
v -2 1 4
v -2 1 -0
v -2 1 -1
v -1 0 6
v -1 0 5
v -1 0 4
v -1 0 3
v -1 0 1
v -1 0 -0
v -1 0 -1
v -1 0 -2
v -1 1 6
v -1 1 5
v -1 1 4
v -1 1 3
v -1 1 1
v -1 1 -0
v -1 1 -1
v -1 1 -2
v 0 0 5
v 0 0 4
v 0 1 5
v 0 1 4
v 1 0 6
v 1 0 5
v 1 0 4
v 1 0 3
v 1 0 -0
v 1 0 -1
v 1 0 -4
v 1 0 -5
v 1 1 6
v 1 1 5
v 1 1 4
v 1 1 3
v 1 1 -0
v 1 1 -1
v 1 1 -4
v 1 1 -5
v 2 0 9
v 2 0 8
v 2 0 5
v 2 0 4
v 2 0 -3
v 2 0 -4
v 2 0 -5
v 2 0 -6
v 2 1 9
v 2 1 8
v 2 1 5
v 2 1 4
v 2 1 -3
v 2 1 -4
v 2 1 -5
v 2 1 -6
v 3 0 8
v 3 0 7
v 3 0 6
v 3 0 5
v 3 0 4
v 3 0 3
v 3 0 -9
v 3 0 -10
v 3 1 8
v 3 1 7
v 3 1 6
v 3 1 5
v 3 1 4
v 3 1 3
v 3 1 -9
v 3 1 -10
v 4 0 7
v 4 0 6
v 4 0 5
v 4 0 4
v 4 0 -8
v 4 0 -9
v 4 1 7
v 4 1 6
v 4 1 5
v 4 1 4
v 4 1 -8
v 4 1 -9
v 5 0 3
v 5 0 1
v 5 0 -0
v 5 0 -1
v 5 0 -7
v 5 0 -8
v 5 1 3
v 5 1 1
v 5 1 -0
v 5 1 -1
v 5 1 -7
v 5 1 -8
v 6 0 1
v 6 0 -0
v 6 0 -1
v 6 0 -2
v 6 0 -6
v 6 0 -7
v 6 1 1
v 6 1 -0
v 6 1 -1
v 6 1 -2
v 6 1 -6
v 6 1 -7
v 7 0 -2
v 7 0 -6
v 7 1 -2
v 7 1 -6
v -2 0 9
v -2 1 9
v -1 0 9
v -1 1 9
v 1 0 9
v 1 1 9
v 2 0 9
v 2 1 9
v -3 0 8
v -3 1 8
v -2 0 8
v -2 1 8
v 2 0 8
v 2 1 8
v 3 0 8
v 3 1 8
v -4 0 7
v -4 1 7
v -3 0 7
v -3 1 7
v 3 0 7
v 3 1 7
v 4 0 7
v 4 1 7
v -3 0 5
v -3 1 5
v -2 0 5
v -2 1 5
v -1 0 5
v -1 1 5
v 0 0 5
v 0 1 5
v 1 0 5
v 1 1 5
v 2 0 5
v 2 1 5
v 3 0 5
v 3 1 5
v 4 0 5
v 4 1 5
v -4 0 4
v -4 1 4
v -3 0 4
v -3 1 4
v -2 0 4
v -2 1 4
v -1 0 4
v -1 1 4
v 0 0 4
v 0 1 4
v 1 0 4
v 1 1 4
v 2 0 4
v 2 1 4
v 3 0 4
v 3 1 4
v -5 0 3
v -5 1 3
v -4 0 3
v -4 1 3
v -3 0 3
v -3 1 3
v -2 0 3
v -2 1 3
v -1 0 3
v -1 1 3
v 0 0 3
v 0 1 3
v 1 0 3
v 1 1 3
v 2 0 3
v 2 1 3
v 3 0 3
v 3 1 3
v 5 0 3
v 5 1 3
v -6 0 1
v -6 1 1
v -5 0 1
v -5 1 1
v 5 0 1
v 5 1 1
v 6 0 1
v 6 1 1
v -1 0 -0
v -1 1 -0
v 1 0 -0
v 1 1 -0
v -6 0 -1
v -6 1 -1
v -5 0 -1
v -5 1 -1
v -2 0 -1
v -2 1 -1
v -1 0 -1
v -1 1 -1
v 1 0 -1
v 1 1 -1
v 2 0 -1
v 2 1 -1
v 5 0 -1
v 5 1 -1
v 6 0 -1
v 6 1 -1
v -7 0 -2
v -7 1 -2
v -6 0 -2
v -6 1 -2
v -1 0 -2
v -1 1 -2
v 1 0 -2
v 1 1 -2
v 6 0 -2
v 6 1 -2
v 7 0 -2
v 7 1 -2
v -4 0 -5
v -4 1 -5
v -3 0 -5
v -3 1 -5
v -2 0 -5
v -2 1 -5
v -1 0 -5
v -1 1 -5
v 1 0 -5
v 1 1 -5
v 2 0 -5
v 2 1 -5
v 3 0 -5
v 3 1 -5
v 4 0 -5
v 4 1 -5
v -3 0 -6
v -3 1 -6
v -2 0 -6
v -2 1 -6
v 2 0 -6
v 2 1 -6
v 3 0 -6
v 3 1 -6
v -3 0 6
v -3 1 6
v -2 0 6
v -2 1 6
v -1 0 6
v -1 1 6
v 0 0 6
v 0 1 6
v 1 0 6
v 1 1 6
v 2 0 6
v 2 1 6
v 3 0 6
v 3 1 6
v 4 0 6
v 4 1 6
v -4 0 5
v -4 1 5
v -3 0 5
v -3 1 5
v -2 0 5
v -2 1 5
v -1 0 5
v -1 1 5
v 0 0 5
v 0 1 5
v 1 0 5
v 1 1 5
v 2 0 5
v 2 1 5
v 3 0 5
v 3 1 5
v -3 0 4
v -3 1 4
v -2 0 4
v -2 1 4
v -1 0 4
v -1 1 4
v 0 0 4
v 0 1 4
v 1 0 4
v 1 1 4
v 2 0 4
v 2 1 4
v 3 0 4
v 3 1 4
v 4 0 4
v 4 1 4
v -1 0 1
v -1 1 1
v 1 0 1
v 1 1 1
v -6 0 -0
v -6 1 -0
v -5 0 -0
v -5 1 -0
v -2 0 -0
v -2 1 -0
v -1 0 -0
v -1 1 -0
v 1 0 -0
v 1 1 -0
v 2 0 -0
v 2 1 -0
v 5 0 -0
v 5 1 -0
v 6 0 -0
v 6 1 -0
v -1 0 -1
v -1 1 -1
v 1 0 -1
v 1 1 -1
v -3 0 -3
v -3 1 -3
v -2 0 -3
v -2 1 -3
v 2 0 -3
v 2 1 -3
v 3 0 -3
v 3 1 -3
v -4 0 -4
v -4 1 -4
v -3 0 -4
v -3 1 -4
v -2 0 -4
v -2 1 -4
v -1 0 -4
v -1 1 -4
v 1 0 -4
v 1 1 -4
v 2 0 -4
v 2 1 -4
v 3 0 -4
v 3 1 -4
v 4 0 -4
v 4 1 -4
v -7 0 -6
v -7 1 -6
v -6 0 -6
v -6 1 -6
v 6 0 -6
v 6 1 -6
v 7 0 -6
v 7 1 -6
v -6 0 -7
v -6 1 -7
v -5 0 -7
v -5 1 -7
v 5 0 -7
v 5 1 -7
v 6 0 -7
v 6 1 -7
v -5 0 -8
v -5 1 -8
v -4 0 -8
v -4 1 -8
v 4 0 -8
v 4 1 -8
v 5 0 -8
v 5 1 -8
v -4 0 -9
v -4 1 -9
v -3 0 -9
v -3 1 -9
v 3 0 -9
v 3 1 -9
v 4 0 -9
v 4 1 -9
v -3 0 -10
v -3 1 -10
v 3 0 -10
v 3 1 -10
v -2 0 9
v -1 0 9
v 1 0 9
v 2 0 9
v -3 0 8
v -2 0 8
v -1 0 8
v 1 0 8
v 2 0 8
v 3 0 8
v -4 0 7
v -3 0 7
v -2 0 7
v 2 0 7
v 3 0 7
v 4 0 7
v -3 0 6
v -2 0 6
v -1 0 6
v 0 0 6
v 1 0 6
v 2 0 6
v 3 0 6
v 4 0 6
v -4 0 5
v -3 0 5
v -2 0 5
v -1 0 5
v 0 0 5
v 1 0 5
v 2 0 5
v 3 0 5
v 4 0 5
v -4 0 4
v -3 0 4
v -2 0 4
v -1 0 4
v 0 0 4
v 1 0 4
v 2 0 4
v 3 0 4
v 4 0 4
v -5 0 3
v -4 0 3
v -3 0 3
v -2 0 3
v -1 0 3
v 0 0 3
v 1 0 3
v 2 0 3
v 3 0 3
v 5 0 3
v -4 0 2
v -3 0 2
v 3 0 2
v 4 0 2
v -6 0 1
v -5 0 1
v -4 0 1
v -1 0 1
v 1 0 1
v 4 0 1
v 5 0 1
v 6 0 1
v -6 0 -0
v -5 0 -0
v -4 0 -0
v -2 0 -0
v -1 0 -0
v 1 0 -0
v 2 0 -0
v 4 0 -0
v 5 0 -0
v 6 0 -0
v -6 0 -1
v -5 0 -1
v -4 0 -1
v -2 0 -1
v -1 0 -1
v 1 0 -1
v 2 0 -1
v 4 0 -1
v 5 0 -1
v 6 0 -1
v -7 0 -2
v -6 0 -2
v -5 0 -2
v -1 0 -2
v 1 0 -2
v 5 0 -2
v 6 0 -2
v 7 0 -2
v -3 0 -3
v -2 0 -3
v 2 0 -3
v 3 0 -3
v -4 0 -4
v -3 0 -4
v -2 0 -4
v -1 0 -4
v 1 0 -4
v 2 0 -4
v 3 0 -4
v 4 0 -4
v -4 0 -5
v -3 0 -5
v -2 0 -5
v -1 0 -5
v 1 0 -5
v 2 0 -5
v 3 0 -5
v 4 0 -5
v -7 0 -6
v -6 0 -6
v -5 0 -6
v -3 0 -6
v -2 0 -6
v 2 0 -6
v 3 0 -6
v 5 0 -6
v 6 0 -6
v 7 0 -6
v -6 0 -7
v -5 0 -7
v -4 0 -7
v 4 0 -7
v 5 0 -7
v 6 0 -7
v -5 0 -8
v -4 0 -8
v -3 0 -8
v 3 0 -8
v 4 0 -8
v 5 0 -8
v -4 0 -9
v -3 0 -9
v 3 0 -9
v 4 0 -9
v -3 0 -10
v 3 0 -10
v -2 1 9
v -1 1 9
v 1 1 9
v 2 1 9
v -3 1 8
v -2 1 8
v -1 1 8
v 1 1 8
v 2 1 8
v 3 1 8
v -4 1 7
v -3 1 7
v -2 1 7
v 2 1 7
v 3 1 7
v 4 1 7
v -3 1 6
v -2 1 6
v -1 1 6
v 0 1 6
v 1 1 6
v 2 1 6
v 3 1 6
v 4 1 6
v -4 1 5
v -3 1 5
v -2 1 5
v -1 1 5
v 0 1 5
v 1 1 5
v 2 1 5
v 3 1 5
v 4 1 5
v -4 1 4
v -3 1 4
v -2 1 4
v -1 1 4
v 0 1 4
v 1 1 4
v 2 1 4
v 3 1 4
v 4 1 4
v -5 1 3
v -4 1 3
v -3 1 3
v -2 1 3
v -1 1 3
v 0 1 3
v 1 1 3
v 2 1 3
v 3 1 3
v 5 1 3
v -4 1 2
v -3 1 2
v 3 1 2
v 4 1 2
v -6 1 1
v -5 1 1
v -4 1 1
v -1 1 1
v 1 1 1
v 4 1 1
v 5 1 1
v 6 1 1
v -6 1 -0
v -5 1 -0
v -4 1 -0
v -2 1 -0
v -1 1 -0
v 1 1 -0
v 2 1 -0
v 4 1 -0
v 5 1 -0
v 6 1 -0
v -6 1 -1
v -5 1 -1
v -4 1 -1
v -2 1 -1
v -1 1 -1
v 1 1 -1
v 2 1 -1
v 4 1 -1
v 5 1 -1
v 6 1 -1
v -7 1 -2
v -6 1 -2
v -5 1 -2
v -1 1 -2
v 1 1 -2
v 5 1 -2
v 6 1 -2
v 7 1 -2
v -3 1 -3
v -2 1 -3
v 2 1 -3
v 3 1 -3
v -4 1 -4
v -3 1 -4
v -2 1 -4
v -1 1 -4
v 1 1 -4
v 2 1 -4
v 3 1 -4
v 4 1 -4
v -4 1 -5
v -3 1 -5
v -2 1 -5
v -1 1 -5
v 1 1 -5
v 2 1 -5
v 3 1 -5
v 4 1 -5
v -7 1 -6
v -6 1 -6
v -5 1 -6
v -3 1 -6
v -2 1 -6
v 2 1 -6
v 3 1 -6
v 5 1 -6
v 6 1 -6
v 7 1 -6
v -6 1 -7
v -5 1 -7
v -4 1 -7
v 4 1 -7
v 5 1 -7
v 6 1 -7
v -5 1 -8
v -4 1 -8
v -3 1 -8
v 3 1 -8
v 4 1 -8
v 5 1 -8
v -4 1 -9
v -3 1 -9
v 3 1 -9
v 4 1 -9
v -3 1 -10
v 3 1 -10

# faces
f 3/2/1 2/2/1 1/2/1
f 4/2/1 2/2/1 3/2/1
f 11/2/1 6/2/1 5/2/1
f 12/2/1 6/2/1 11/2/1
f 13/2/1 8/2/1 7/2/1
f 14/2/1 8/2/1 13/2/1
f 15/2/1 10/2/1 9/2/1
f 16/2/1 10/2/1 15/2/1
f 23/2/1 18/2/1 17/2/1
f 24/2/1 18/2/1 23/2/1
f 25/2/1 20/2/1 19/2/1
f 26/2/1 20/2/1 25/2/1
f 27/2/1 22/2/1 21/2/1
f 28/2/1 22/2/1 27/2/1
f 35/2/1 30/2/1 29/2/1
f 36/2/1 30/2/1 35/2/1
f 37/2/1 32/2/1 31/2/1
f 38/2/1 32/2/1 37/2/1
f 39/2/1 34/2/1 33/2/1
f 40/2/1 34/2/1 39/2/1
f 47/2/1 42/2/1 41/2/1
f 48/2/1 42/2/1 47/2/1
f 49/2/1 44/2/1 43/2/1
f 50/2/1 44/2/1 49/2/1
f 51/2/1 46/2/1 45/2/1
f 52/2/1 46/2/1 51/2/1
f 63/2/1 54/2/1 53/2/1
f 64/2/1 54/2/1 63/2/1
f 65/2/1 56/2/1 55/2/1
f 66/2/1 56/2/1 65/2/1
f 67/1/1 58/1/1 57/1/1
f 68/1/1 58/1/1 67/1/1
f 69/1/1 60/1/1 59/1/1
f 70/1/1 60/1/1 69/1/1
f 71/1/1 62/1/1 61/1/1
f 72/1/1 62/1/1 71/1/1
f 79/2/1 74/2/1 73/2/1
f 80/2/1 74/2/1 79/2/1
f 81/1/1 76/1/1 75/1/1
f 82/1/1 76/1/1 81/1/1
f 83/1/1 78/1/1 77/1/1
f 84/1/1 78/1/1 83/1/1
f 89/2/1 86/2/1 85/2/1
f 90/2/1 86/2/1 89/2/1
f 91/1/1 88/1/1 87/1/1
f 92/1/1 88/1/1 91/1/1
f 99/2/1 94/2/1 93/2/1
f 100/2/1 94/2/1 99/2/1
f 101/1/1 96/1/1 95/1/1
f 102/1/1 96/1/1 101/1/1
f 103/1/1 98/1/1 97/1/1
f 104/1/1 98/1/1 103/1/1
f 111/2/1 106/2/1 105/2/1
f 112/2/1 106/2/1 111/2/1
f 113/1/1 108/1/1 107/1/1
f 114/1/1 108/1/1 113/1/1
f 115/1/1 110/1/1 109/1/1
f 116/1/1 110/1/1 115/1/1
f 123/1/1 118/1/1 117/1/1
f 124/1/1 118/1/1 123/1/1
f 125/1/1 120/1/1 119/1/1
f 126/1/1 120/1/1 125/1/1
f 127/1/1 122/1/1 121/1/1
f 128/1/1 122/1/1 127/1/1
f 131/1/1 130/1/1 129/1/1
f 132/1/1 130/1/1 131/1/1
f 133/1/2 134/1/2 135/1/2
f 135/1/2 134/1/2 136/1/2
f 137/2/2 138/2/2 145/2/2
f 145/2/2 138/2/2 146/2/2
f 139/2/2 140/2/2 147/2/2
f 147/2/2 140/2/2 148/2/2
f 141/1/2 142/1/2 149/1/2
f 149/1/2 142/1/2 150/1/2
f 143/1/2 144/1/2 151/1/2
f 151/1/2 144/1/2 152/1/2
f 153/2/2 154/2/2 157/2/2
f 157/2/2 154/2/2 158/2/2
f 155/1/2 156/1/2 159/1/2
f 159/1/2 156/1/2 160/1/2
f 161/2/2 162/2/2 169/2/2
f 169/2/2 162/2/2 170/2/2
f 163/1/2 164/1/2 171/1/2
f 171/1/2 164/1/2 172/1/2
f 165/1/2 166/1/2 173/1/2
f 173/1/2 166/1/2 174/1/2
f 167/1/2 168/1/2 175/1/2
f 175/1/2 168/1/2 176/1/2
f 177/2/2 178/2/2 179/2/2
f 179/2/2 178/2/2 180/2/2
f 181/2/2 182/2/2 189/2/2
f 189/2/2 182/2/2 190/2/2
f 183/1/2 184/1/2 191/1/2
f 191/1/2 184/1/2 192/1/2
f 185/1/2 186/1/2 193/1/2
f 193/1/2 186/1/2 194/1/2
f 187/1/2 188/1/2 195/1/2
f 195/1/2 188/1/2 196/1/2
f 197/2/2 198/2/2 205/2/2
f 205/2/2 198/2/2 206/2/2
f 199/2/2 200/2/2 207/2/2
f 207/2/2 200/2/2 208/2/2
f 201/1/2 202/1/2 209/1/2
f 209/1/2 202/1/2 210/1/2
f 203/1/2 204/1/2 211/1/2
f 211/1/2 204/1/2 212/1/2
f 213/2/2 214/2/2 221/2/2
f 221/2/2 214/2/2 222/2/2
f 215/2/2 216/2/2 223/2/2
f 223/2/2 216/2/2 224/2/2
f 217/1/2 218/1/2 225/1/2
f 225/1/2 218/1/2 226/1/2
f 219/2/2 220/2/2 227/2/2
f 227/2/2 220/2/2 228/2/2
f 229/2/2 230/2/2 235/2/2
f 235/2/2 230/2/2 236/2/2
f 231/1/2 232/1/2 237/1/2
f 237/1/2 232/1/2 238/1/2
f 233/2/2 234/2/2 239/2/2
f 239/2/2 234/2/2 240/2/2
f 241/2/2 242/2/2 247/2/2
f 247/2/2 242/2/2 248/2/2
f 243/2/2 244/2/2 249/2/2
f 249/2/2 244/2/2 250/2/2
f 245/2/2 246/2/2 251/2/2
f 251/2/2 246/2/2 252/2/2
f 253/2/2 254/2/2 259/2/2
f 259/2/2 254/2/2 260/2/2
f 255/2/2 256/2/2 261/2/2
f 261/2/2 256/2/2 262/2/2
f 257/2/2 258/2/2 263/2/2
f 263/2/2 258/2/2 264/2/2
f 265/2/2 266/2/2 267/2/2
f 267/2/2 266/2/2 268/2/2
f 271/2/3 270/2/3 269/2/3
f 272/2/3 270/2/3 271/2/3
f 273/1/3 272/1/3 271/1/3
f 274/1/3 272/1/3 273/1/3
f 275/2/3 274/2/3 273/2/3
f 276/2/3 274/2/3 275/2/3
f 279/2/3 278/2/3 277/2/3
f 280/2/3 278/2/3 279/2/3
f 283/2/3 282/2/3 281/2/3
f 284/2/3 282/2/3 283/2/3
f 287/2/3 286/2/3 285/2/3
f 288/2/3 286/2/3 287/2/3
f 291/2/3 290/2/3 289/2/3
f 292/2/3 290/2/3 291/2/3
f 295/2/3 294/2/3 293/2/3
f 296/2/3 294/2/3 295/2/3
f 299/2/3 298/2/3 297/2/3
f 300/2/3 298/2/3 299/2/3
f 303/2/3 302/2/3 301/2/3
f 304/2/3 302/2/3 303/2/3
f 307/1/3 306/1/3 305/1/3
f 308/1/3 306/1/3 307/1/3
f 311/2/3 310/2/3 309/2/3
f 312/2/3 310/2/3 311/2/3
f 315/1/3 314/1/3 313/1/3
f 316/1/3 314/1/3 315/1/3
f 319/1/3 318/1/3 317/1/3
f 320/1/3 318/1/3 319/1/3
f 323/1/3 322/1/3 321/1/3
f 324/1/3 322/1/3 323/1/3
f 327/2/3 326/2/3 325/2/3
f 328/2/3 326/2/3 327/2/3
f 331/1/3 330/1/3 329/1/3
f 332/1/3 330/1/3 331/1/3
f 335/1/3 334/1/3 333/1/3
f 336/1/3 334/1/3 335/1/3
f 339/1/3 338/1/3 337/1/3
f 340/1/3 338/1/3 339/1/3
f 343/2/3 342/2/3 341/2/3
f 344/2/3 342/2/3 343/2/3
f 347/2/3 346/2/3 345/2/3
f 348/2/3 346/2/3 347/2/3
f 351/2/3 350/2/3 349/2/3
f 352/2/3 350/2/3 351/2/3
f 355/1/3 354/1/3 353/1/3
f 356/1/3 354/1/3 355/1/3
f 359/2/3 358/2/3 357/2/3
f 360/2/3 358/2/3 359/2/3
f 363/1/3 362/1/3 361/1/3
f 364/1/3 362/1/3 363/1/3
f 367/1/3 366/1/3 365/1/3
f 368/1/3 366/1/3 367/1/3
f 371/2/3 370/2/3 369/2/3
f 372/2/3 370/2/3 371/2/3
f 375/2/3 374/2/3 373/2/3
f 376/2/3 374/2/3 375/2/3
f 379/1/3 378/1/3 377/1/3
f 380/1/3 378/1/3 379/1/3
f 383/2/3 382/2/3 381/2/3
f 384/2/3 382/2/3 383/2/3
f 387/1/3 386/1/3 385/1/3
f 388/1/3 386/1/3 387/1/3
f 391/1/3 390/1/3 389/1/3
f 392/1/3 390/1/3 391/1/3
f 395/1/3 394/1/3 393/1/3
f 396/1/3 394/1/3 395/1/3
f 399/1/3 398/1/3 397/1/3
f 400/1/3 398/1/3 399/1/3
f 403/1/3 402/1/3 401/1/3
f 404/1/3 402/1/3 403/1/3
f 407/1/3 406/1/3 405/1/3
f 408/1/3 406/1/3 407/1/3
f 409/1/4 410/1/4 411/1/4
f 411/1/4 410/1/4 412/1/4
f 413/1/4 414/1/4 415/1/4
f 415/1/4 414/1/4 416/1/4
f 417/1/4 418/1/4 419/1/4
f 419/1/4 418/1/4 420/1/4
f 421/2/4 422/2/4 423/2/4
f 423/2/4 422/2/4 424/2/4
f 425/2/4 426/2/4 427/2/4
f 427/2/4 426/2/4 428/2/4
f 429/2/4 430/2/4 431/2/4
f 431/2/4 430/2/4 432/2/4
f 433/2/4 434/2/4 435/2/4
f 435/2/4 434/2/4 436/2/4
f 437/2/4 438/2/4 439/2/4
f 439/2/4 438/2/4 440/2/4
f 441/2/4 442/2/4 443/2/4
f 443/2/4 442/2/4 444/2/4
f 445/2/4 446/2/4 447/2/4
f 447/2/4 446/2/4 448/2/4
f 449/2/4 450/2/4 451/2/4
f 451/2/4 450/2/4 452/2/4
f 453/1/4 454/1/4 455/1/4
f 455/1/4 454/1/4 456/1/4
f 457/1/4 458/1/4 459/1/4
f 459/1/4 458/1/4 460/1/4
f 461/2/4 462/2/4 463/2/4
f 463/2/4 462/2/4 464/2/4
f 465/1/4 466/1/4 467/1/4
f 467/1/4 466/1/4 468/1/4
f 469/1/4 470/1/4 471/1/4
f 471/1/4 470/1/4 472/1/4
f 473/2/4 474/2/4 475/2/4
f 475/2/4 474/2/4 476/2/4
f 477/1/4 478/1/4 479/1/4
f 479/1/4 478/1/4 480/1/4
f 481/1/4 482/1/4 483/1/4
f 483/1/4 482/1/4 484/1/4
f 485/1/4 486/1/4 487/1/4
f 487/1/4 486/1/4 488/1/4
f 489/1/4 490/1/4 491/1/4
f 491/1/4 490/1/4 492/1/4
f 493/1/4 494/1/4 495/1/4
f 495/1/4 494/1/4 496/1/4
f 497/1/4 498/1/4 499/1/4
f 499/1/4 498/1/4 500/1/4
f 501/1/4 502/1/4 503/1/4
f 503/1/4 502/1/4 504/1/4
f 505/2/4 506/2/4 507/2/4
f 507/2/4 506/2/4 508/2/4
f 509/2/4 510/2/4 511/2/4
f 511/2/4 510/2/4 512/2/4
f 513/2/4 514/2/4 515/2/4
f 515/2/4 514/2/4 516/2/4
f 517/2/4 518/2/4 519/2/4
f 519/2/4 518/2/4 520/2/4
f 521/2/4 522/2/4 523/2/4
f 523/2/4 522/2/4 524/2/4
f 525/2/4 526/2/4 527/2/4
f 527/2/4 526/2/4 528/2/4
f 529/2/4 530/2/4 531/2/4
f 531/2/4 530/2/4 532/2/4
f 533/2/4 534/2/4 535/2/4
f 535/2/4 534/2/4 536/2/4
f 537/2/4 538/2/4 539/2/4
f 539/2/4 538/2/4 540/2/4
f 546/2/5 542/2/5 541/2/5
f 547/1/5 543/1/5 542/1/5
f 547/2/5 542/2/5 546/2/5
f 548/2/5 544/2/5 543/2/5
f 548/1/5 543/1/5 547/1/5
f 549/2/5 544/2/5 548/2/5
f 552/2/5 546/2/5 545/2/5
f 553/1/5 547/1/5 546/1/5
f 553/1/5 548/1/5 547/1/5
f 553/2/5 546/2/5 552/2/5
f 553/1/5 549/1/5 548/1/5
f 554/2/5 550/2/5 549/2/5
f 554/1/5 549/1/5 553/1/5
f 555/2/5 550/2/5 554/2/5
f 557/2/5 552/2/5 551/2/5
f 557/1/5 553/1/5 552/1/5
f 557/1/5 555/1/5 554/1/5
f 557/1/5 554/1/5 553/1/5
f 558/1/5 555/1/5 557/1/5
f 559/1/5 555/1/5 558/1/5
f 560/1/5 555/1/5 559/1/5
f 561/1/5 555/1/5 560/1/5
f 562/1/5 555/1/5 561/1/5
f 563/2/5 556/2/5 555/2/5
f 563/1/5 555/1/5 562/1/5
f 564/2/5 556/2/5 563/2/5
f 565/2/5 557/2/5 551/2/5
f 566/2/5 557/2/5 565/2/5
f 567/2/5 559/2/5 558/2/5
f 568/2/5 559/2/5 567/2/5
f 569/2/5 561/2/5 560/2/5
f 570/2/5 561/2/5 569/2/5
f 571/2/5 563/2/5 562/2/5
f 572/2/5 563/2/5 571/2/5
f 575/2/5 567/2/5 566/2/5
f 576/2/5 567/2/5 575/2/5
f 577/2/5 569/2/5 568/2/5
f 578/2/5 569/2/5 577/2/5
f 579/2/5 571/2/5 570/2/5
f 580/2/5 571/2/5 579/2/5
f 581/1/5 573/1/5 572/1/5
f 582/1/5 573/1/5 581/1/5
f 584/2/5 575/2/5 574/2/5
f 585/2/5 575/2/5 584/2/5
f 586/1/5 577/1/5 576/1/5
f 587/1/5 577/1/5 586/1/5
f 588/1/5 579/1/5 578/1/5
f 589/1/5 579/1/5 588/1/5
f 590/1/5 581/1/5 580/1/5
f 591/1/5 581/1/5 590/1/5
f 593/2/5 585/2/5 584/2/5
f 593/2/5 584/2/5 583/2/5
f 594/1/5 591/1/5 590/1/5
f 594/2/5 585/2/5 593/2/5
f 594/1/5 590/1/5 589/1/5
f 594/1/5 588/1/5 587/1/5
f 594/1/5 589/1/5 588/1/5
f 594/1/5 586/1/5 585/1/5
f 594/1/5 587/1/5 586/1/5
f 595/2/5 592/2/5 591/2/5
f 595/1/5 591/1/5 594/1/5
f 596/2/5 592/2/5 595/2/5
f 598/2/5 593/2/5 583/2/5
f 599/1/5 594/1/5 593/1/5
f 599/1/5 595/1/5 594/1/5
f 599/2/5 593/2/5 598/2/5
f 599/1/5 596/1/5 595/1/5
f 600/1/5 596/1/5 599/1/5
f 601/1/5 596/1/5 600/1/5
f 602/2/5 592/2/5 596/2/5
f 602/1/5 596/1/5 601/1/5
f 603/2/5 592/2/5 602/2/5
f 605/2/5 598/2/5 597/2/5
f 606/1/5 599/1/5 598/1/5
f 606/2/5 598/2/5 605/2/5
f 606/1/5 600/1/5 599/1/5
f 607/1/5 600/1/5 606/1/5
f 608/1/5 600/1/5 607/1/5
f 609/1/5 600/1/5 608/1/5
f 610/1/5 603/1/5 602/1/5
f 610/1/5 602/1/5 601/1/5
f 611/1/5 603/1/5 610/1/5
f 612/1/5 603/1/5 611/1/5
f 613/2/5 604/2/5 603/2/5
f 613/1/5 603/1/5 612/1/5
f 614/2/5 604/2/5 613/2/5
f 616/2/5 607/2/5 606/2/5
f 617/1/5 608/1/5 607/1/5
f 617/2/5 607/2/5 616/2/5
f 618/1/5 608/1/5 617/1/5
f 619/1/5 610/1/5 609/1/5
f 620/1/5 610/1/5 619/1/5
f 621/1/5 612/1/5 611/1/5
f 622/2/5 613/2/5 612/2/5
f 622/1/5 612/1/5 621/1/5
f 623/2/5 613/2/5 622/2/5
f 626/2/5 616/2/5 615/2/5
f 627/1/5 618/1/5 617/1/5
f 627/1/5 617/1/5 616/1/5
f 627/2/5 616/2/5 626/2/5
f 627/1/5 619/1/5 618/1/5
f 628/1/5 619/1/5 627/1/5
f 629/1/5 623/1/5 622/1/5
f 629/1/5 621/1/5 620/1/5
f 629/1/5 622/1/5 621/1/5
f 630/2/5 624/2/5 623/2/5
f 630/1/5 623/1/5 629/1/5
f 631/2/5 624/2/5 630/2/5
f 633/1/5 629/1/5 628/1/5
f 633/1/5 631/1/5 630/1/5
f 633/1/5 630/1/5 629/1/5
f 633/1/5 628/1/5 627/1/5
f 633/1/5 627/1/5 626/1/5
f 634/1/5 631/1/5 633/1/5
f 635/1/5 631/1/5 634/1/5
f 636/1/5 631/1/5 635/1/5
f 637/1/5 633/1/5 626/1/5
f 638/1/5 633/1/5 637/1/5
f 639/1/5 635/1/5 634/1/5
f 640/1/5 635/1/5 639/1/5
f 641/1/5 635/1/5 640/1/5
f 642/1/5 635/1/5 641/1/5
f 643/1/5 631/1/5 636/1/5
f 644/1/5 631/1/5 643/1/5
f 645/1/5 637/1/5 626/1/5
f 648/1/5 641/1/5 640/1/5
f 649/1/5 641/1/5 648/1/5
f 652/1/5 631/1/5 644/1/5
f 653/2/5 626/2/5 625/2/5
f 654/1/5 646/1/5 645/1/5
f 654/2/5 626/2/5 653/2/5
f 654/1/5 645/1/5 626/1/5
f 655/1/5 646/1/5 654/1/5
f 656/1/5 646/1/5 655/1/5
f 657/1/5 650/1/5 649/1/5
f 657/1/5 648/1/5 647/1/5
f 657/1/5 649/1/5 648/1/5
f 658/1/5 650/1/5 657/1/5
f 659/1/5 652/1/5 651/1/5
f 660/1/5 631/1/5 652/1/5
f 660/1/5 652/1/5 659/1/5
f 661/2/5 632/2/5 631/2/5
f 661/1/5 631/1/5 660/1/5
f 662/2/5 632/2/5 661/2/5
f 663/2/5 655/2/5 654/2/5
f 664/1/5 660/1/5 659/1/5
f 664/2/5 655/2/5 663/2/5
f 664/1/5 658/1/5 657/1/5
f 664/1/5 656/1/5 655/1/5
f 664/1/5 657/1/5 656/1/5
f 664/1/5 659/1/5 658/1/5
f 665/1/5 660/1/5 664/1/5
f 666/1/5 660/1/5 665/1/5
f 667/2/5 661/2/5 660/2/5
f 667/1/5 660/1/5 666/1/5
f 668/2/5 661/2/5 667/2/5
f 669/2/5 665/2/5 664/2/5
f 670/1/5 666/1/5 665/1/5
f 670/2/5 665/2/5 669/2/5
f 671/1/5 666/1/5 670/1/5
f 672/1/5 666/1/5 671/1/5
f 673/2/5 667/2/5 666/2/5
f 673/1/5 666/1/5 672/1/5
f 674/2/5 667/2/5 673/2/5
f 675/2/5 671/2/5 670/2/5
f 676/1/5 672/1/5 671/1/5
f 676/2/5 671/2/5 675/2/5
f 677/2/5 673/2/5 672/2/5
f 677/1/5 672/1/5 676/1/5
f 678/2/5 673/2/5 677/2/5
f 679/2/5 677/2/5 676/2/5
f 680/2/5 677/2/5 679/2/5
f 681/2/6 682/2/6 686/2/6
f 682/1/6 683/1/6 687/1/6
f 686/2/6 682/2/6 687/2/6
f 683/2/6 684/2/6 688/2/6
f 687/1/6 683/1/6 688/1/6
f 688/2/6 684/2/6 689/2/6
f 685/2/6 686/2/6 692/2/6
f 686/1/6 687/1/6 693/1/6
f 687/1/6 688/1/6 693/1/6
f 692/2/6 686/2/6 693/2/6
f 688/1/6 689/1/6 693/1/6
f 689/2/6 690/2/6 694/2/6
f 693/1/6 689/1/6 694/1/6
f 694/2/6 690/2/6 695/2/6
f 691/2/6 692/2/6 697/2/6
f 692/1/6 693/1/6 697/1/6
f 694/1/6 695/1/6 697/1/6
f 693/1/6 694/1/6 697/1/6
f 697/1/6 695/1/6 698/1/6
f 698/1/6 695/1/6 699/1/6
f 699/1/6 695/1/6 700/1/6
f 700/1/6 695/1/6 701/1/6
f 701/1/6 695/1/6 702/1/6
f 695/2/6 696/2/6 703/2/6
f 702/1/6 695/1/6 703/1/6
f 703/2/6 696/2/6 704/2/6
f 691/2/6 697/2/6 705/2/6
f 705/2/6 697/2/6 706/2/6
f 698/2/6 699/2/6 707/2/6
f 707/2/6 699/2/6 708/2/6
f 700/2/6 701/2/6 709/2/6
f 709/2/6 701/2/6 710/2/6
f 702/2/6 703/2/6 711/2/6
f 711/2/6 703/2/6 712/2/6
f 706/2/6 707/2/6 715/2/6
f 715/2/6 707/2/6 716/2/6
f 708/2/6 709/2/6 717/2/6
f 717/2/6 709/2/6 718/2/6
f 710/2/6 711/2/6 719/2/6
f 719/2/6 711/2/6 720/2/6
f 712/1/6 713/1/6 721/1/6
f 721/1/6 713/1/6 722/1/6
f 714/2/6 715/2/6 724/2/6
f 724/2/6 715/2/6 725/2/6
f 716/1/6 717/1/6 726/1/6
f 726/1/6 717/1/6 727/1/6
f 718/1/6 719/1/6 728/1/6
f 728/1/6 719/1/6 729/1/6
f 720/1/6 721/1/6 730/1/6
f 730/1/6 721/1/6 731/1/6
f 724/2/6 725/2/6 733/2/6
f 723/2/6 724/2/6 733/2/6
f 730/1/6 731/1/6 734/1/6
f 733/2/6 725/2/6 734/2/6
f 729/1/6 730/1/6 734/1/6
f 727/1/6 728/1/6 734/1/6
f 728/1/6 729/1/6 734/1/6
f 725/1/6 726/1/6 734/1/6
f 726/1/6 727/1/6 734/1/6
f 731/2/6 732/2/6 735/2/6
f 734/1/6 731/1/6 735/1/6
f 735/2/6 732/2/6 736/2/6
f 723/2/6 733/2/6 738/2/6
f 733/1/6 734/1/6 739/1/6
f 734/1/6 735/1/6 739/1/6
f 738/2/6 733/2/6 739/2/6
f 735/1/6 736/1/6 739/1/6
f 739/1/6 736/1/6 740/1/6
f 740/1/6 736/1/6 741/1/6
f 736/2/6 732/2/6 742/2/6
f 741/1/6 736/1/6 742/1/6
f 742/2/6 732/2/6 743/2/6
f 737/2/6 738/2/6 745/2/6
f 738/1/6 739/1/6 746/1/6
f 745/2/6 738/2/6 746/2/6
f 739/1/6 740/1/6 746/1/6
f 746/1/6 740/1/6 747/1/6
f 747/1/6 740/1/6 748/1/6
f 748/1/6 740/1/6 749/1/6
f 742/1/6 743/1/6 750/1/6
f 741/1/6 742/1/6 750/1/6
f 750/1/6 743/1/6 751/1/6
f 751/1/6 743/1/6 752/1/6
f 743/2/6 744/2/6 753/2/6
f 752/1/6 743/1/6 753/1/6
f 753/2/6 744/2/6 754/2/6
f 746/2/6 747/2/6 756/2/6
f 747/1/6 748/1/6 757/1/6
f 756/2/6 747/2/6 757/2/6
f 757/1/6 748/1/6 758/1/6
f 749/1/6 750/1/6 759/1/6
f 759/1/6 750/1/6 760/1/6
f 751/1/6 752/1/6 761/1/6
f 752/2/6 753/2/6 762/2/6
f 761/1/6 752/1/6 762/1/6
f 762/2/6 753/2/6 763/2/6
f 755/2/6 756/2/6 766/2/6
f 757/1/6 758/1/6 767/1/6
f 756/1/6 757/1/6 767/1/6
f 766/2/6 756/2/6 767/2/6
f 758/1/6 759/1/6 767/1/6
f 767/1/6 759/1/6 768/1/6
f 762/1/6 763/1/6 769/1/6
f 760/1/6 761/1/6 769/1/6
f 761/1/6 762/1/6 769/1/6
f 763/2/6 764/2/6 770/2/6
f 769/1/6 763/1/6 770/1/6
f 770/2/6 764/2/6 771/2/6
f 768/1/6 769/1/6 773/1/6
f 770/1/6 771/1/6 773/1/6
f 769/1/6 770/1/6 773/1/6
f 767/1/6 768/1/6 773/1/6
f 766/1/6 767/1/6 773/1/6
f 773/1/6 771/1/6 774/1/6
f 774/1/6 771/1/6 775/1/6
f 775/1/6 771/1/6 776/1/6
f 766/1/6 773/1/6 777/1/6
f 777/1/6 773/1/6 778/1/6
f 774/1/6 775/1/6 779/1/6
f 779/1/6 775/1/6 780/1/6
f 780/1/6 775/1/6 781/1/6
f 781/1/6 775/1/6 782/1/6
f 776/1/6 771/1/6 783/1/6
f 783/1/6 771/1/6 784/1/6
f 766/1/6 777/1/6 785/1/6
f 780/1/6 781/1/6 788/1/6
f 788/1/6 781/1/6 789/1/6
f 784/1/6 771/1/6 792/1/6
f 765/2/6 766/2/6 793/2/6
f 785/1/6 786/1/6 794/1/6
f 793/2/6 766/2/6 794/2/6
f 766/1/6 785/1/6 794/1/6
f 794/1/6 786/1/6 795/1/6
f 795/1/6 786/1/6 796/1/6
f 789/1/6 790/1/6 797/1/6
f 787/1/6 788/1/6 797/1/6
f 788/1/6 789/1/6 797/1/6
f 797/1/6 790/1/6 798/1/6
f 791/1/6 792/1/6 799/1/6
f 792/1/6 771/1/6 800/1/6
f 799/1/6 792/1/6 800/1/6
f 771/2/6 772/2/6 801/2/6
f 800/1/6 771/1/6 801/1/6
f 801/2/6 772/2/6 802/2/6
f 794/2/6 795/2/6 803/2/6
f 799/1/6 800/1/6 804/1/6
f 803/2/6 795/2/6 804/2/6
f 797/1/6 798/1/6 804/1/6
f 795/1/6 796/1/6 804/1/6
f 796/1/6 797/1/6 804/1/6
f 798/1/6 799/1/6 804/1/6
f 804/1/6 800/1/6 805/1/6
f 805/1/6 800/1/6 806/1/6
f 800/2/6 801/2/6 807/2/6
f 806/1/6 800/1/6 807/1/6
f 807/2/6 801/2/6 808/2/6
f 804/2/6 805/2/6 809/2/6
f 805/1/6 806/1/6 810/1/6
f 809/2/6 805/2/6 810/2/6
f 810/1/6 806/1/6 811/1/6
f 811/1/6 806/1/6 812/1/6
f 806/2/6 807/2/6 813/2/6
f 812/1/6 806/1/6 813/1/6
f 813/2/6 807/2/6 814/2/6
f 810/2/6 811/2/6 815/2/6
f 811/1/6 812/1/6 816/1/6
f 815/2/6 811/2/6 816/2/6
f 812/2/6 813/2/6 817/2/6
f 816/1/6 812/1/6 817/1/6
f 817/2/6 813/2/6 818/2/6
f 816/2/6 817/2/6 819/2/6
f 819/2/6 817/2/6 820/2/6
