# MagicaVoxel @ ephtracy

# material
mtllib baby_vampire.mtl
usemtl palette

# normals
vn -1 0 0
vn 1 0 0
vn 0 0 1
vn 0 0 -1
vn 0 -1 0
vn 0 1 0

# texcoords
vt 0.841797 0.5
vt 0.845703 0.5
vt 0.955078 0.5
vt 0.958984 0.5

# verts
v -9 0 2
v -9 0 -2
v -9 1 2
v -9 1 -2
v -8 0 3
v -8 0 2
v -8 1 3
v -8 1 2
v -7 0 4
v -7 0 3
v -7 1 4
v -7 1 3
v -5 0 5
v -5 0 4
v -5 0 1
v -5 0 -3
v -5 1 5
v -5 1 4
v -5 1 1
v -5 1 -3
v -4 0 6
v -4 0 5
v -4 0 -3
v -4 0 -4
v -4 0 -7
v -4 1 6
v -4 1 5
v -4 1 -3
v -4 1 -4
v -4 1 -7
v -3 0 7
v -3 0 6
v -3 1 7
v -3 1 6
v -2 0 8
v -2 0 7
v -2 1 8
v -2 1 7
v 2 0 -5
v 2 0 -6
v 2 1 -5
v 2 1 -6
v 3 0 -6
v 3 0 -7
v 3 1 -6
v 3 1 -7
v 6 0 1
v 6 0 -0
v 6 1 1
v 6 1 -0
v 7 0 -0
v 7 0 -1
v 7 1 -0
v 7 1 -1
v 8 0 -1
v 8 0 -2
v 8 1 -1
v 8 1 -2
v -8 0 -1
v -8 0 -2
v -8 1 -1
v -8 1 -2
v -7 0 -0
v -7 0 -1
v -7 1 -0
v -7 1 -1
v -6 0 1
v -6 0 -0
v -6 1 1
v -6 1 -0
v -3 0 -6
v -3 0 -7
v -3 1 -6
v -3 1 -7
v -2 0 -5
v -2 0 -6
v -2 1 -5
v -2 1 -6
v 2 0 8
v 2 0 7
v 2 1 8
v 2 1 7
v 3 0 7
v 3 0 6
v 3 1 7
v 3 1 6
v 4 0 6
v 4 0 5
v 4 0 -3
v 4 0 -4
v 4 0 -7
v 4 1 6
v 4 1 5
v 4 1 -3
v 4 1 -4
v 4 1 -7
v 5 0 5
v 5 0 4
v 5 0 1
v 5 0 -3
v 5 1 5
v 5 1 4
v 5 1 1
v 5 1 -3
v 7 0 4
v 7 0 3
v 7 1 4
v 7 1 3
v 8 0 3
v 8 0 2
v 8 1 3
v 8 1 2
v 9 0 2
v 9 0 -2
v 9 1 2
v 9 1 -2
v -2 0 8
v -2 1 8
v 2 0 8
v 2 1 8
v -3 0 7
v -3 1 7
v -2 0 7
v -2 1 7
v 2 0 7
v 2 1 7
v 3 0 7
v 3 1 7
v -4 0 6
v -4 1 6
v -3 0 6
v -3 1 6
v 3 0 6
v 3 1 6
v 4 0 6
v 4 1 6
v -5 0 5
v -5 1 5
v -4 0 5
v -4 1 5
v 4 0 5
v 4 1 5
v 5 0 5
v 5 1 5
v -7 0 4
v -7 1 4
v -5 0 4
v -5 1 4
v 5 0 4
v 5 1 4
v 7 0 4
v 7 1 4
v -8 0 3
v -8 1 3
v -7 0 3
v -7 1 3
v 7 0 3
v 7 1 3
v 8 0 3
v 8 1 3
v -9 0 2
v -9 1 2
v -8 0 2
v -8 1 2
v 8 0 2
v 8 1 2
v 9 0 2
v 9 1 2
v -6 0 1
v -6 1 1
v -5 0 1
v -5 1 1
v 5 0 1
v 5 1 1
v 6 0 1
v 6 1 1
v -7 0 -0
v -7 1 -0
v -6 0 -0
v -6 1 -0
v 6 0 -0
v 6 1 -0
v 7 0 -0
v 7 1 -0
v -8 0 -1
v -8 1 -1
v -7 0 -1
v -7 1 -1
v 7 0 -1
v 7 1 -1
v 8 0 -1
v 8 1 -1
v -9 0 -2
v -9 1 -2
v -8 0 -2
v -8 1 -2
v 8 0 -2
v 8 1 -2
v 9 0 -2
v 9 1 -2
v -5 0 -3
v -5 1 -3
v -4 0 -3
v -4 1 -3
v 4 0 -3
v 4 1 -3
v 5 0 -3
v 5 1 -3
v -2 0 -5
v -2 1 -5
v 2 0 -5
v 2 1 -5
v -3 0 -6
v -3 1 -6
v -2 0 -6
v -2 1 -6
v 2 0 -6
v 2 1 -6
v 3 0 -6
v 3 1 -6
v -4 0 -7
v -4 1 -7
v -3 0 -7
v -3 1 -7
v 3 0 -7
v 3 1 -7
v 4 0 -7
v 4 1 -7
v -2 0 8
v 2 0 8
v -3 0 7
v -2 0 7
v 2 0 7
v 3 0 7
v -4 0 6
v -3 0 6
v -1 0 6
v 0 0 6
v 1 0 6
v 3 0 6
v 4 0 6
v -5 0 5
v -4 0 5
v -3 0 5
v -2 0 5
v -1 0 5
v 0 0 5
v 2 0 5
v 3 0 5
v 4 0 5
v 5 0 5
v -7 0 4
v -5 0 4
v -3 0 4
v -2 0 4
v -1 0 4
v 1 0 4
v 2 0 4
v 3 0 4
v 5 0 4
v 7 0 4
v -8 0 3
v -7 0 3
v -3 0 3
v -2 0 3
v -1 0 3
v 1 0 3
v 2 0 3
v 3 0 3
v 7 0 3
v 8 0 3
v -9 0 2
v -8 0 2
v 8 0 2
v 9 0 2
v -6 0 1
v -5 0 1
v 5 0 1
v 6 0 1
v -7 0 -0
v -6 0 -0
v -3 0 -0
v -1 0 -0
v 1 0 -0
v 3 0 -0
v 6 0 -0
v 7 0 -0
v -8 0 -1
v -7 0 -1
v 7 0 -1
v 8 0 -1
v -9 0 -2
v -8 0 -2
v -3 0 -2
v -1 0 -2
v 1 0 -2
v 3 0 -2
v 8 0 -2
v 9 0 -2
v -5 0 -3
v -4 0 -3
v 4 0 -3
v 5 0 -3
v -4 0 -4
v -3 0 -4
v 3 0 -4
v 4 0 -4
v -3 0 -5
v -2 0 -5
v 2 0 -5
v 3 0 -5
v -3 0 -6
v -2 0 -6
v 2 0 -6
v 3 0 -6
v -4 0 -7
v -3 0 -7
v 3 0 -7
v 4 0 -7
v -2 1 8
v 2 1 8
v -3 1 7
v -2 1 7
v 2 1 7
v 3 1 7
v -4 1 6
v -3 1 6
v -1 1 6
v 0 1 6
v 1 1 6
v 3 1 6
v 4 1 6
v -5 1 5
v -4 1 5
v -3 1 5
v -2 1 5
v -1 1 5
v 0 1 5
v 2 1 5
v 3 1 5
v 4 1 5
v 5 1 5
v -7 1 4
v -5 1 4
v -3 1 4
v -2 1 4
v -1 1 4
v 1 1 4
v 2 1 4
v 3 1 4
v 5 1 4
v 7 1 4
v -8 1 3
v -7 1 3
v -3 1 3
v -2 1 3
v -1 1 3
v 1 1 3
v 2 1 3
v 3 1 3
v 7 1 3
v 8 1 3
v -9 1 2
v -8 1 2
v 8 1 2
v 9 1 2
v -6 1 1
v -5 1 1
v 5 1 1
v 6 1 1
v -7 1 -0
v -6 1 -0
v -3 1 -0
v -1 1 -0
v 1 1 -0
v 3 1 -0
v 6 1 -0
v 7 1 -0
v -8 1 -1
v -7 1 -1
v 7 1 -1
v 8 1 -1
v -9 1 -2
v -8 1 -2
v -3 1 -2
v -1 1 -2
v 1 1 -2
v 3 1 -2
v 8 1 -2
v 9 1 -2
v -5 1 -3
v -4 1 -3
v 4 1 -3
v 5 1 -3
v -4 1 -4
v -3 1 -4
v 3 1 -4
v 4 1 -4
v -3 1 -5
v -2 1 -5
v 2 1 -5
v 3 1 -5
v -3 1 -6
v -2 1 -6
v 2 1 -6
v 3 1 -6
v -4 1 -7
v -3 1 -7
v 3 1 -7
v 4 1 -7

# faces
f 3/1/1 2/1/1 1/1/1
f 4/1/1 2/1/1 3/1/1
f 7/1/1 6/1/1 5/1/1
f 8/1/1 6/1/1 7/1/1
f 11/1/1 10/1/1 9/1/1
f 12/1/1 10/1/1 11/1/1
f 17/4/1 14/4/1 13/4/1
f 18/4/1 14/4/1 17/4/1
f 19/4/1 16/4/1 15/4/1
f 20/4/1 16/4/1 19/4/1
f 26/4/1 22/4/1 21/4/1
f 27/4/1 22/4/1 26/4/1
f 28/4/1 24/4/1 23/4/1
f 29/1/1 25/1/1 24/1/1
f 29/4/1 24/4/1 28/4/1
f 30/1/1 25/1/1 29/1/1
f 33/4/1 32/4/1 31/4/1
f 34/4/1 32/4/1 33/4/1
f 37/4/1 36/4/1 35/4/1
f 38/4/1 36/4/1 37/4/1
f 41/1/1 40/1/1 39/1/1
f 42/1/1 40/1/1 41/1/1
f 45/1/1 44/1/1 43/1/1
f 46/1/1 44/1/1 45/1/1
f 49/1/1 48/1/1 47/1/1
f 50/1/1 48/1/1 49/1/1
f 53/1/1 52/1/1 51/1/1
f 54/1/1 52/1/1 53/1/1
f 57/1/1 56/1/1 55/1/1
f 58/1/1 56/1/1 57/1/1
f 59/1/2 60/1/2 61/1/2
f 61/1/2 60/1/2 62/1/2
f 63/1/2 64/1/2 65/1/2
f 65/1/2 64/1/2 66/1/2
f 67/1/2 68/1/2 69/1/2
f 69/1/2 68/1/2 70/1/2
f 71/1/2 72/1/2 73/1/2
f 73/1/2 72/1/2 74/1/2
f 75/1/2 76/1/2 77/1/2
f 77/1/2 76/1/2 78/1/2
f 79/4/2 80/4/2 81/4/2
f 81/4/2 80/4/2 82/4/2
f 83/4/2 84/4/2 85/4/2
f 85/4/2 84/4/2 86/4/2
f 87/4/2 88/4/2 92/4/2
f 92/4/2 88/4/2 93/4/2
f 89/4/2 90/4/2 94/4/2
f 90/1/2 91/1/2 95/1/2
f 94/4/2 90/4/2 95/4/2
f 95/1/2 91/1/2 96/1/2
f 97/4/2 98/4/2 101/4/2
f 101/4/2 98/4/2 102/4/2
f 99/4/2 100/4/2 103/4/2
f 103/4/2 100/4/2 104/4/2
f 105/1/2 106/1/2 107/1/2
f 107/1/2 106/1/2 108/1/2
f 109/1/2 110/1/2 111/1/2
f 111/1/2 110/1/2 112/1/2
f 113/1/2 114/1/2 115/1/2
f 115/1/2 114/1/2 116/1/2
f 119/4/3 118/4/3 117/4/3
f 120/4/3 118/4/3 119/4/3
f 123/4/3 122/4/3 121/4/3
f 124/4/3 122/4/3 123/4/3
f 127/4/3 126/4/3 125/4/3
f 128/4/3 126/4/3 127/4/3
f 131/4/3 130/4/3 129/4/3
f 132/4/3 130/4/3 131/4/3
f 135/4/3 134/4/3 133/4/3
f 136/4/3 134/4/3 135/4/3
f 139/4/3 138/4/3 137/4/3
f 140/4/3 138/4/3 139/4/3
f 143/4/3 142/4/3 141/4/3
f 144/4/3 142/4/3 143/4/3
f 147/1/3 146/1/3 145/1/3
f 148/1/3 146/1/3 147/1/3
f 151/1/3 150/1/3 149/1/3
f 152/1/3 150/1/3 151/1/3
f 155/1/3 154/1/3 153/1/3
f 156/1/3 154/1/3 155/1/3
f 159/1/3 158/1/3 157/1/3
f 160/1/3 158/1/3 159/1/3
f 163/1/3 162/1/3 161/1/3
f 164/1/3 162/1/3 163/1/3
f 167/1/3 166/1/3 165/1/3
f 168/1/3 166/1/3 167/1/3
f 169/1/4 170/1/4 171/1/4
f 171/1/4 170/1/4 172/1/4
f 173/1/4 174/1/4 175/1/4
f 175/1/4 174/1/4 176/1/4
f 177/1/4 178/1/4 179/1/4
f 179/1/4 178/1/4 180/1/4
f 181/1/4 182/1/4 183/1/4
f 183/1/4 182/1/4 184/1/4
f 185/1/4 186/1/4 187/1/4
f 187/1/4 186/1/4 188/1/4
f 189/1/4 190/1/4 191/1/4
f 191/1/4 190/1/4 192/1/4
f 193/1/4 194/1/4 195/1/4
f 195/1/4 194/1/4 196/1/4
f 197/1/4 198/1/4 199/1/4
f 199/1/4 198/1/4 200/1/4
f 201/4/4 202/4/4 203/4/4
f 203/4/4 202/4/4 204/4/4
f 205/4/4 206/4/4 207/4/4
f 207/4/4 206/4/4 208/4/4
f 209/4/4 210/4/4 211/4/4
f 211/4/4 210/4/4 212/4/4
f 213/1/4 214/1/4 215/1/4
f 215/1/4 214/1/4 216/1/4
f 217/1/4 218/1/4 219/1/4
f 219/1/4 218/1/4 220/1/4
f 221/1/4 222/1/4 223/1/4
f 223/1/4 222/1/4 224/1/4
f 225/1/4 226/1/4 227/1/4
f 227/1/4 226/1/4 228/1/4
f 232/4/5 230/4/5 229/4/5
f 233/4/5 230/4/5 232/4/5
f 236/4/5 232/4/5 231/4/5
f 236/4/5 234/4/5 233/4/5
f 236/4/5 233/4/5 232/4/5
f 237/4/5 234/4/5 236/4/5
f 238/4/5 234/4/5 237/4/5
f 239/4/5 234/4/5 238/4/5
f 240/4/5 234/4/5 239/4/5
f 243/4/5 236/4/5 235/4/5
f 243/4/5 237/4/5 236/4/5
f 244/4/5 237/4/5 243/4/5
f 245/4/5 237/4/5 244/4/5
f 246/1/5 238/1/5 237/1/5
f 246/4/5 237/4/5 245/4/5
f 247/2/5 239/2/5 238/2/5
f 247/1/5 238/1/5 246/1/5
f 248/4/5 241/4/5 240/4/5
f 248/4/5 240/4/5 239/4/5
f 249/4/5 241/4/5 248/4/5
f 250/4/5 241/4/5 249/4/5
f 253/4/5 243/4/5 242/4/5
f 253/4/5 244/4/5 243/4/5
f 254/2/5 245/2/5 244/2/5
f 254/4/5 244/4/5 253/4/5
f 255/4/5 246/4/5 245/4/5
f 255/2/5 245/2/5 254/2/5
f 256/2/5 247/2/5 246/2/5
f 256/4/5 246/4/5 255/4/5
f 257/2/5 239/2/5 247/2/5
f 257/2/5 247/2/5 256/2/5
f 257/4/5 248/4/5 239/4/5
f 258/2/5 249/2/5 248/2/5
f 258/4/5 248/4/5 257/4/5
f 259/4/5 251/4/5 250/4/5
f 259/2/5 249/2/5 258/2/5
f 259/4/5 250/4/5 249/4/5
f 260/4/5 251/4/5 259/4/5
f 263/1/5 253/1/5 252/1/5
f 264/1/5 255/1/5 254/1/5
f 264/4/5 254/4/5 253/4/5
f 265/2/5 256/2/5 255/2/5
f 265/1/5 255/1/5 264/1/5
f 266/1/5 257/1/5 256/1/5
f 266/2/5 256/2/5 265/2/5
f 267/2/5 258/2/5 257/2/5
f 267/1/5 257/1/5 266/1/5
f 268/1/5 259/1/5 258/1/5
f 268/2/5 258/2/5 267/2/5
f 269/4/5 260/4/5 259/4/5
f 269/1/5 259/1/5 268/1/5
f 270/1/5 261/1/5 260/1/5
f 273/1/5 263/1/5 262/1/5
f 274/1/5 271/1/5 270/1/5
f 276/1/5 273/1/5 272/1/5
f 276/1/5 253/1/5 263/1/5
f 276/1/5 263/1/5 273/1/5
f 277/4/5 264/4/5 253/4/5
f 277/1/5 253/1/5 276/1/5
f 277/4/5 266/4/5 265/4/5
f 277/4/5 265/4/5 264/4/5
f 277/4/5 267/4/5 266/4/5
f 277/4/5 269/4/5 268/4/5
f 277/4/5 268/4/5 267/4/5
f 278/1/5 275/1/5 274/1/5
f 278/4/5 269/4/5 277/4/5
f 278/4/5 260/4/5 269/4/5
f 278/1/5 274/1/5 270/1/5
f 278/1/5 270/1/5 260/1/5
f 279/1/5 275/1/5 278/1/5
f 280/1/5 276/1/5 272/1/5
f 281/1/5 276/1/5 280/1/5
f 282/4/5 278/4/5 277/4/5
f 283/4/5 278/4/5 282/4/5
f 284/4/5 278/4/5 283/4/5
f 285/4/5 278/4/5 284/4/5
f 286/1/5 275/1/5 279/1/5
f 287/1/5 275/1/5 286/1/5
f 288/1/5 280/1/5 272/1/5
f 289/1/5 280/1/5 288/1/5
f 290/1/5 275/1/5 287/1/5
f 291/1/5 275/1/5 290/1/5
f 292/1/5 288/1/5 272/1/5
f 293/1/5 288/1/5 292/1/5
f 294/4/5 282/4/5 277/4/5
f 294/3/5 283/3/5 282/3/5
f 295/4/5 284/4/5 283/4/5
f 295/3/5 283/3/5 294/3/5
f 296/3/5 285/3/5 284/3/5
f 296/4/5 284/4/5 295/4/5
f 297/4/5 278/4/5 285/4/5
f 297/3/5 285/3/5 296/3/5
f 298/1/5 275/1/5 291/1/5
f 299/1/5 275/1/5 298/1/5
f 300/4/5 296/4/5 295/4/5
f 300/4/5 294/4/5 277/4/5
f 300/4/5 297/4/5 296/4/5
f 300/4/5 295/4/5 294/4/5
f 301/4/5 297/4/5 300/4/5
f 302/4/5 278/4/5 297/4/5
f 302/4/5 297/4/5 301/4/5
f 303/4/5 278/4/5 302/4/5
f 304/4/5 302/4/5 301/4/5
f 305/4/5 302/4/5 304/4/5
f 306/4/5 302/4/5 305/4/5
f 307/4/5 302/4/5 306/4/5
f 308/1/5 305/1/5 304/1/5
f 308/4/5 306/4/5 305/4/5
f 309/4/5 306/4/5 308/4/5
f 310/4/5 306/4/5 309/4/5
f 311/1/5 307/1/5 306/1/5
f 311/4/5 306/4/5 310/4/5
f 312/1/5 308/1/5 304/1/5
f 312/1/5 309/1/5 308/1/5
f 313/1/5 309/1/5 312/1/5
f 314/1/5 311/1/5 310/1/5
f 315/1/5 307/1/5 311/1/5
f 315/1/5 311/1/5 314/1/5
f 316/1/5 312/1/5 304/1/5
f 317/1/5 312/1/5 316/1/5
f 318/1/5 307/1/5 315/1/5
f 319/1/5 307/1/5 318/1/5
f 320/4/6 321/4/6 323/4/6
f 323/4/6 321/4/6 324/4/6
f 322/4/6 323/4/6 327/4/6
f 324/4/6 325/4/6 327/4/6
f 323/4/6 324/4/6 327/4/6
f 327/4/6 325/4/6 328/4/6
f 328/4/6 325/4/6 329/4/6
f 329/4/6 325/4/6 330/4/6
f 330/4/6 325/4/6 331/4/6
f 326/4/6 327/4/6 334/4/6
f 327/4/6 328/4/6 334/4/6
f 334/4/6 328/4/6 335/4/6
f 335/4/6 328/4/6 336/4/6
f 328/1/6 329/1/6 337/1/6
f 336/4/6 328/4/6 337/4/6
f 329/2/6 330/2/6 338/2/6
f 337/1/6 329/1/6 338/1/6
f 331/4/6 332/4/6 339/4/6
f 330/4/6 331/4/6 339/4/6
f 339/4/6 332/4/6 340/4/6
f 340/4/6 332/4/6 341/4/6
f 333/4/6 334/4/6 344/4/6
f 334/4/6 335/4/6 344/4/6
f 335/2/6 336/2/6 345/2/6
f 344/4/6 335/4/6 345/4/6
f 336/4/6 337/4/6 346/4/6
f 345/2/6 336/2/6 346/2/6
f 337/2/6 338/2/6 347/2/6
f 346/4/6 337/4/6 347/4/6
f 338/2/6 330/2/6 348/2/6
f 347/2/6 338/2/6 348/2/6
f 330/4/6 339/4/6 348/4/6
f 339/2/6 340/2/6 349/2/6
f 348/4/6 339/4/6 349/4/6
f 341/4/6 342/4/6 350/4/6
f 349/2/6 340/2/6 350/2/6
f 340/4/6 341/4/6 350/4/6
f 350/4/6 342/4/6 351/4/6
f 343/1/6 344/1/6 354/1/6
f 345/1/6 346/1/6 355/1/6
f 344/4/6 345/4/6 355/4/6
f 346/2/6 347/2/6 356/2/6
f 355/1/6 346/1/6 356/1/6
f 347/1/6 348/1/6 357/1/6
f 356/2/6 347/2/6 357/2/6
f 348/2/6 349/2/6 358/2/6
f 357/1/6 348/1/6 358/1/6
f 349/1/6 350/1/6 359/1/6
f 358/2/6 349/2/6 359/2/6
f 350/4/6 351/4/6 360/4/6
f 359/1/6 350/1/6 360/1/6
f 351/1/6 352/1/6 361/1/6
f 353/1/6 354/1/6 364/1/6
f 361/1/6 362/1/6 365/1/6
f 363/1/6 364/1/6 367/1/6
f 354/1/6 344/1/6 367/1/6
f 364/1/6 354/1/6 367/1/6
f 344/4/6 355/4/6 368/4/6
f 367/1/6 344/1/6 368/1/6
f 356/4/6 357/4/6 368/4/6
f 355/4/6 356/4/6 368/4/6
f 357/4/6 358/4/6 368/4/6
f 359/4/6 360/4/6 368/4/6
f 358/4/6 359/4/6 368/4/6
f 365/1/6 366/1/6 369/1/6
f 368/4/6 360/4/6 369/4/6
f 360/4/6 351/4/6 369/4/6
f 361/1/6 365/1/6 369/1/6
f 351/1/6 361/1/6 369/1/6
f 369/1/6 366/1/6 370/1/6
f 363/1/6 367/1/6 371/1/6
f 371/1/6 367/1/6 372/1/6
f 368/4/6 369/4/6 373/4/6
f 373/4/6 369/4/6 374/4/6
f 374/4/6 369/4/6 375/4/6
f 375/4/6 369/4/6 376/4/6
f 370/1/6 366/1/6 377/1/6
f 377/1/6 366/1/6 378/1/6
f 363/1/6 371/1/6 379/1/6
f 379/1/6 371/1/6 380/1/6
f 378/1/6 366/1/6 381/1/6
f 381/1/6 366/1/6 382/1/6
f 363/1/6 379/1/6 383/1/6
f 383/1/6 379/1/6 384/1/6
f 368/4/6 373/4/6 385/4/6
f 373/3/6 374/3/6 385/3/6
f 374/4/6 375/4/6 386/4/6
f 385/3/6 374/3/6 386/3/6
f 375/3/6 376/3/6 387/3/6
f 386/4/6 375/4/6 387/4/6
f 376/4/6 369/4/6 388/4/6
f 387/3/6 376/3/6 388/3/6
f 382/1/6 366/1/6 389/1/6
f 389/1/6 366/1/6 390/1/6
f 386/4/6 387/4/6 391/4/6
f 368/4/6 385/4/6 391/4/6
f 387/4/6 388/4/6 391/4/6
f 385/4/6 386/4/6 391/4/6
f 391/4/6 388/4/6 392/4/6
f 388/4/6 369/4/6 393/4/6
f 392/4/6 388/4/6 393/4/6
f 393/4/6 369/4/6 394/4/6
f 392/4/6 393/4/6 395/4/6
f 395/4/6 393/4/6 396/4/6
f 396/4/6 393/4/6 397/4/6
f 397/4/6 393/4/6 398/4/6
f 395/1/6 396/1/6 399/1/6
f 396/4/6 397/4/6 399/4/6
f 399/4/6 397/4/6 400/4/6
f 400/4/6 397/4/6 401/4/6
f 397/1/6 398/1/6 402/1/6
f 401/4/6 397/4/6 402/4/6
f 395/1/6 399/1/6 403/1/6
f 399/1/6 400/1/6 403/1/6
f 403/1/6 400/1/6 404/1/6
f 401/1/6 402/1/6 405/1/6
f 402/1/6 398/1/6 406/1/6
f 405/1/6 402/1/6 406/1/6
f 395/1/6 403/1/6 407/1/6
f 407/1/6 403/1/6 408/1/6
f 406/1/6 398/1/6 409/1/6
f 409/1/6 398/1/6 410/1/6
