# MagicaVoxel @ ephtracy

# material
mtllib bomb.mtl
usemtl palette

# normals
vn -1 0 0
vn 1 0 0
vn 0 0 1
vn 0 0 -1
vn 0 -1 0
vn 0 1 0

# texcoords
vt 0.0214844 0.5
vt 0.958984 0.5
vt 0.966797 0.5
vt 0.982422 0.5

# verts
v -5 0 6
v -5 0 1
v -5 1 6
v -5 1 1
v -4 0 7
v -4 0 6
v -4 0 1
v -4 0 -0
v -4 1 7
v -4 1 6
v -4 1 1
v -4 1 -0
v -3 0 8
v -3 0 7
v -3 0 -0
v -3 0 -1
v -3 1 8
v -3 1 7
v -3 1 -0
v -3 1 -1
v -2 0 9
v -2 0 8
v -2 0 -1
v -2 0 -2
v -2 1 9
v -2 1 8
v -2 1 -1
v -2 1 -2
v -1 0 -2
v -1 0 -3
v -1 1 -2
v -1 1 -3
v 0 0 -3
v 0 0 -5
v 0 1 -3
v 0 1 -5
v 1 0 -5
v 1 0 -6
v 1 1 -5
v 1 1 -6
v 2 0 -6
v 2 0 -7
v 2 1 -6
v 2 1 -7
v 3 0 -7
v 3 0 -8
v 3 1 -7
v 3 1 -8
v 5 0 -5
v 5 0 -6
v 5 0 -7
v 5 1 -5
v 5 1 -6
v 5 1 -7
v 6 0 -4
v 6 0 -5
v 6 1 -4
v 6 1 -5
v 1 0 -3
v 1 0 -5
v 1 1 -3
v 1 1 -5
v 2 0 -2
v 2 0 -3
v 2 0 -5
v 2 0 -6
v 2 1 -2
v 2 1 -3
v 2 1 -5
v 2 1 -6
v 3 0 9
v 3 0 8
v 3 0 -1
v 3 0 -2
v 3 0 -6
v 3 0 -7
v 3 1 9
v 3 1 8
v 3 1 -1
v 3 1 -2
v 3 1 -6
v 3 1 -7
v 4 0 8
v 4 0 7
v 4 0 -0
v 4 0 -1
v 4 1 8
v 4 1 7
v 4 1 -0
v 4 1 -1
v 5 0 7
v 5 0 6
v 5 0 1
v 5 0 -0
v 5 0 -7
v 5 0 -8
v 5 1 7
v 5 1 6
v 5 1 1
v 5 1 -0
v 5 1 -7
v 5 1 -8
v 6 0 6
v 6 0 1
v 6 1 6
v 6 1 1
v 7 0 -4
v 7 0 -5
v 7 0 -6
v 7 0 -7
v 7 1 -4
v 7 1 -5
v 7 1 -6
v 7 1 -7
v 8 0 -5
v 8 0 -6
v 8 1 -5
v 8 1 -6
v -2 0 9
v -2 1 9
v 3 0 9
v 3 1 9
v -3 0 8
v -3 1 8
v -2 0 8
v -2 1 8
v 3 0 8
v 3 1 8
v 4 0 8
v 4 1 8
v -4 0 7
v -4 1 7
v -3 0 7
v -3 1 7
v 4 0 7
v 4 1 7
v 5 0 7
v 5 1 7
v -5 0 6
v -5 1 6
v -4 0 6
v -4 1 6
v 5 0 6
v 5 1 6
v 6 0 6
v 6 1 6
v 6 0 -4
v 6 1 -4
v 7 0 -4
v 7 1 -4
v 1 0 -5
v 1 1 -5
v 2 0 -5
v 2 1 -5
v 5 0 -5
v 5 1 -5
v 6 0 -5
v 6 1 -5
v 7 0 -5
v 7 1 -5
v 8 0 -5
v 8 1 -5
v 2 0 -6
v 2 1 -6
v 3 0 -6
v 3 1 -6
v 3 0 -7
v 3 1 -7
v 5 0 -7
v 5 1 -7
v -5 0 1
v -5 1 1
v -4 0 1
v -4 1 1
v 5 0 1
v 5 1 1
v 6 0 1
v 6 1 1
v -4 0 -0
v -4 1 -0
v -3 0 -0
v -3 1 -0
v 4 0 -0
v 4 1 -0
v 5 0 -0
v 5 1 -0
v -3 0 -1
v -3 1 -1
v -2 0 -1
v -2 1 -1
v 3 0 -1
v 3 1 -1
v 4 0 -1
v 4 1 -1
v -2 0 -2
v -2 1 -2
v -1 0 -2
v -1 1 -2
v 2 0 -2
v 2 1 -2
v 3 0 -2
v 3 1 -2
v -1 0 -3
v -1 1 -3
v 0 0 -3
v 0 1 -3
v 1 0 -3
v 1 1 -3
v 2 0 -3
v 2 1 -3
v 0 0 -5
v 0 1 -5
v 1 0 -5
v 1 1 -5
v 1 0 -6
v 1 1 -6
v 2 0 -6
v 2 1 -6
v 7 0 -6
v 7 1 -6
v 8 0 -6
v 8 1 -6
v 2 0 -7
v 2 1 -7
v 3 0 -7
v 3 1 -7
v 5 0 -7
v 5 1 -7
v 6 0 -7
v 6 1 -7
v 7 0 -7
v 7 1 -7
v 3 0 -8
v 3 1 -8
v 5 0 -8
v 5 1 -8
v -2 0 9
v 3 0 9
v -3 0 8
v -2 0 8
v 3 0 8
v 4 0 8
v -4 0 7
v -3 0 7
v 4 0 7
v 5 0 7
v -5 0 6
v -4 0 6
v 5 0 6
v 6 0 6
v -3 0 4
v -2 0 4
v -2 0 3
v -1 0 3
v -5 0 1
v -4 0 1
v -3 0 1
v -2 0 1
v 5 0 1
v 6 0 1
v -4 0 -0
v -3 0 -0
v -2 0 -0
v -1 0 -0
v 4 0 -0
v 5 0 -0
v -3 0 -1
v -2 0 -1
v 3 0 -1
v 4 0 -1
v -2 0 -2
v -1 0 -2
v 2 0 -2
v 3 0 -2
v -1 0 -3
v 0 0 -3
v 1 0 -3
v 2 0 -3
v 6 0 -4
v 7 0 -4
v 0 0 -5
v 1 0 -5
v 2 0 -5
v 5 0 -5
v 6 0 -5
v 7 0 -5
v 8 0 -5
v 1 0 -6
v 2 0 -6
v 3 0 -6
v 5 0 -6
v 6 0 -6
v 7 0 -6
v 8 0 -6
v 2 0 -7
v 3 0 -7
v 5 0 -7
v 6 0 -7
v 7 0 -7
v 3 0 -8
v 5 0 -8
v -2 1 9
v 3 1 9
v -3 1 8
v -2 1 8
v 3 1 8
v 4 1 8
v -4 1 7
v -3 1 7
v 4 1 7
v 5 1 7
v -5 1 6
v -4 1 6
v 5 1 6
v 6 1 6
v -3 1 4
v -2 1 4
v -2 1 3
v -1 1 3
v -5 1 1
v -4 1 1
v -3 1 1
v -2 1 1
v 5 1 1
v 6 1 1
v -4 1 -0
v -3 1 -0
v -2 1 -0
v -1 1 -0
v 4 1 -0
v 5 1 -0
v -3 1 -1
v -2 1 -1
v 3 1 -1
v 4 1 -1
v -2 1 -2
v -1 1 -2
v 2 1 -2
v 3 1 -2
v -1 1 -3
v 0 1 -3
v 1 1 -3
v 2 1 -3
v 6 1 -4
v 7 1 -4
v 0 1 -5
v 1 1 -5
v 2 1 -5
v 5 1 -5
v 6 1 -5
v 7 1 -5
v 8 1 -5
v 1 1 -6
v 2 1 -6
v 3 1 -6
v 5 1 -6
v 6 1 -6
v 7 1 -6
v 8 1 -6
v 2 1 -7
v 3 1 -7
v 5 1 -7
v 6 1 -7
v 7 1 -7
v 3 1 -8
v 5 1 -8

# faces
f 3/4/1 2/4/1 1/4/1
f 4/4/1 2/4/1 3/4/1
f 9/4/1 6/4/1 5/4/1
f 10/4/1 6/4/1 9/4/1
f 11/4/1 8/4/1 7/4/1
f 12/4/1 8/4/1 11/4/1
f 17/4/1 14/4/1 13/4/1
f 18/4/1 14/4/1 17/4/1
f 19/4/1 16/4/1 15/4/1
f 20/4/1 16/4/1 19/4/1
f 25/4/1 22/4/1 21/4/1
f 26/4/1 22/4/1 25/4/1
f 27/4/1 24/4/1 23/4/1
f 28/4/1 24/4/1 27/4/1
f 31/3/1 30/3/1 29/3/1
f 32/3/1 30/3/1 31/3/1
f 35/3/1 34/3/1 33/3/1
f 36/3/1 34/3/1 35/3/1
f 39/3/1 38/3/1 37/3/1
f 40/3/1 38/3/1 39/3/1
f 43/3/1 42/3/1 41/3/1
f 44/3/1 42/3/1 43/3/1
f 47/3/1 46/3/1 45/3/1
f 48/3/1 46/3/1 47/3/1
f 52/1/1 50/1/1 49/1/1
f 53/3/1 51/3/1 50/3/1
f 53/1/1 50/1/1 52/1/1
f 54/3/1 51/3/1 53/3/1
f 57/1/1 56/1/1 55/1/1
f 58/1/1 56/1/1 57/1/1
f 59/3/2 60/3/2 61/3/2
f 61/3/2 60/3/2 62/3/2
f 63/3/2 64/3/2 67/3/2
f 67/3/2 64/3/2 68/3/2
f 65/3/2 66/3/2 69/3/2
f 69/3/2 66/3/2 70/3/2
f 71/4/2 72/4/2 77/4/2
f 77/4/2 72/4/2 78/4/2
f 73/4/2 74/4/2 79/4/2
f 79/4/2 74/4/2 80/4/2
f 75/3/2 76/3/2 81/3/2
f 81/3/2 76/3/2 82/3/2
f 83/4/2 84/4/2 87/4/2
f 87/4/2 84/4/2 88/4/2
f 85/4/2 86/4/2 89/4/2
f 89/4/2 86/4/2 90/4/2
f 91/4/2 92/4/2 97/4/2
f 97/4/2 92/4/2 98/4/2
f 93/4/2 94/4/2 99/4/2
f 99/4/2 94/4/2 100/4/2
f 95/3/2 96/3/2 101/3/2
f 101/3/2 96/3/2 102/3/2
f 103/4/2 104/4/2 105/4/2
f 105/4/2 104/4/2 106/4/2
f 107/1/2 108/1/2 111/1/2
f 111/1/2 108/1/2 112/1/2
f 109/1/2 110/1/2 113/1/2
f 113/1/2 110/1/2 114/1/2
f 115/1/2 116/1/2 117/1/2
f 117/1/2 116/1/2 118/1/2
f 121/4/3 120/4/3 119/4/3
f 122/4/3 120/4/3 121/4/3
f 125/4/3 124/4/3 123/4/3
f 126/4/3 124/4/3 125/4/3
f 129/4/3 128/4/3 127/4/3
f 130/4/3 128/4/3 129/4/3
f 133/4/3 132/4/3 131/4/3
f 134/4/3 132/4/3 133/4/3
f 137/4/3 136/4/3 135/4/3
f 138/4/3 136/4/3 137/4/3
f 141/4/3 140/4/3 139/4/3
f 142/4/3 140/4/3 141/4/3
f 145/4/3 144/4/3 143/4/3
f 146/4/3 144/4/3 145/4/3
f 149/1/3 148/1/3 147/1/3
f 150/1/3 148/1/3 149/1/3
f 153/3/3 152/3/3 151/3/3
f 154/3/3 152/3/3 153/3/3
f 157/1/3 156/1/3 155/1/3
f 158/1/3 156/1/3 157/1/3
f 161/1/3 160/1/3 159/1/3
f 162/1/3 160/1/3 161/1/3
f 165/3/3 164/3/3 163/3/3
f 166/3/3 164/3/3 165/3/3
f 169/3/3 168/3/3 167/3/3
f 170/3/3 168/3/3 169/3/3
f 171/4/4 172/4/4 173/4/4
f 173/4/4 172/4/4 174/4/4
f 175/4/4 176/4/4 177/4/4
f 177/4/4 176/4/4 178/4/4
f 179/4/4 180/4/4 181/4/4
f 181/4/4 180/4/4 182/4/4
f 183/4/4 184/4/4 185/4/4
f 185/4/4 184/4/4 186/4/4
f 187/4/4 188/4/4 189/4/4
f 189/4/4 188/4/4 190/4/4
f 191/4/4 192/4/4 193/4/4
f 193/4/4 192/4/4 194/4/4
f 195/4/4 196/4/4 197/4/4
f 197/4/4 196/4/4 198/4/4
f 199/4/4 200/4/4 201/4/4
f 201/4/4 200/4/4 202/4/4
f 203/3/4 204/3/4 205/3/4
f 205/3/4 204/3/4 206/3/4
f 207/3/4 208/3/4 209/3/4
f 209/3/4 208/3/4 210/3/4
f 211/3/4 212/3/4 213/3/4
f 213/3/4 212/3/4 214/3/4
f 215/3/4 216/3/4 217/3/4
f 217/3/4 216/3/4 218/3/4
f 219/1/4 220/1/4 221/1/4
f 221/1/4 220/1/4 222/1/4
f 223/3/4 224/3/4 225/3/4
f 225/3/4 224/3/4 226/3/4
f 227/3/4 228/3/4 229/3/4
f 229/3/4 228/3/4 230/3/4
f 229/1/4 230/1/4 231/1/4
f 231/1/4 230/1/4 232/1/4
f 233/3/4 234/3/4 235/3/4
f 235/3/4 234/3/4 236/3/4
f 240/4/5 238/4/5 237/4/5
f 241/4/5 238/4/5 240/4/5
f 244/4/5 240/4/5 239/4/5
f 244/4/5 242/4/5 241/4/5
f 244/4/5 241/4/5 240/4/5
f 245/4/5 242/4/5 244/4/5
f 248/4/5 244/4/5 243/4/5
f 248/4/5 246/4/5 245/4/5
f 248/4/5 245/4/5 244/4/5
f 249/4/5 246/4/5 248/4/5
f 251/4/5 248/4/5 247/4/5
f 251/4/5 250/4/5 249/4/5
f 251/4/5 249/4/5 248/4/5
f 252/4/5 250/4/5 251/4/5
f 253/2/5 252/2/5 251/2/5
f 253/4/5 250/4/5 252/4/5
f 254/4/5 250/4/5 253/4/5
f 255/4/5 251/4/5 247/4/5
f 256/4/5 251/4/5 255/4/5
f 257/2/5 253/2/5 251/2/5
f 257/4/5 251/4/5 256/4/5
f 257/2/5 254/2/5 253/2/5
f 258/2/5 254/2/5 257/2/5
f 259/4/5 250/4/5 254/4/5
f 260/4/5 250/4/5 259/4/5
f 261/4/5 257/4/5 256/4/5
f 261/4/5 258/4/5 257/4/5
f 262/4/5 258/4/5 261/4/5
f 263/2/5 254/2/5 258/2/5
f 263/4/5 258/4/5 262/4/5
f 264/4/5 259/4/5 254/4/5
f 264/2/5 254/2/5 263/2/5
f 265/4/5 259/4/5 264/4/5
f 266/4/5 259/4/5 265/4/5
f 267/4/5 263/4/5 262/4/5
f 267/4/5 265/4/5 264/4/5
f 267/4/5 264/4/5 263/4/5
f 268/4/5 265/4/5 267/4/5
f 269/4/5 265/4/5 268/4/5
f 270/4/5 265/4/5 269/4/5
f 271/4/5 269/4/5 268/4/5
f 272/4/5 269/4/5 271/4/5
f 273/4/5 269/4/5 272/4/5
f 274/4/5 269/4/5 273/4/5
f 275/3/5 273/3/5 272/3/5
f 276/3/5 273/3/5 275/3/5
f 277/3/5 273/3/5 276/3/5
f 278/3/5 273/3/5 277/3/5
f 281/3/5 277/3/5 276/3/5
f 282/3/5 277/3/5 281/3/5
f 285/1/5 280/1/5 279/1/5
f 286/1/5 280/1/5 285/1/5
f 288/3/5 283/3/5 282/3/5
f 289/3/5 283/3/5 288/3/5
f 291/1/5 287/1/5 286/1/5
f 291/1/5 286/1/5 285/1/5
f 291/1/5 285/1/5 284/1/5
f 292/1/5 287/1/5 291/1/5
f 293/1/5 287/1/5 292/1/5
f 294/1/5 287/1/5 293/1/5
f 295/3/5 290/3/5 289/3/5
f 296/3/5 290/3/5 295/3/5
f 297/3/5 292/3/5 291/3/5
f 298/1/5 293/1/5 292/1/5
f 298/3/5 292/3/5 297/3/5
f 299/1/5 293/1/5 298/1/5
f 300/3/5 297/3/5 296/3/5
f 301/3/5 297/3/5 300/3/5
f 302/4/6 303/4/6 305/4/6
f 305/4/6 303/4/6 306/4/6
f 304/4/6 305/4/6 309/4/6
f 306/4/6 307/4/6 309/4/6
f 305/4/6 306/4/6 309/4/6
f 309/4/6 307/4/6 310/4/6
f 308/4/6 309/4/6 313/4/6
f 310/4/6 311/4/6 313/4/6
f 309/4/6 310/4/6 313/4/6
f 313/4/6 311/4/6 314/4/6
f 312/4/6 313/4/6 316/4/6
f 314/4/6 315/4/6 316/4/6
f 313/4/6 314/4/6 316/4/6
f 316/4/6 315/4/6 317/4/6
f 316/2/6 317/2/6 318/2/6
f 317/4/6 315/4/6 318/4/6
f 318/4/6 315/4/6 319/4/6
f 312/4/6 316/4/6 320/4/6
f 320/4/6 316/4/6 321/4/6
f 316/2/6 318/2/6 322/2/6
f 321/4/6 316/4/6 322/4/6
f 318/2/6 319/2/6 322/2/6
f 322/2/6 319/2/6 323/2/6
f 319/4/6 315/4/6 324/4/6
f 324/4/6 315/4/6 325/4/6
f 321/4/6 322/4/6 326/4/6
f 322/4/6 323/4/6 326/4/6
f 326/4/6 323/4/6 327/4/6
f 323/2/6 319/2/6 328/2/6
f 327/4/6 323/4/6 328/4/6
f 319/4/6 324/4/6 329/4/6
f 328/2/6 319/2/6 329/2/6
f 329/4/6 324/4/6 330/4/6
f 330/4/6 324/4/6 331/4/6
f 327/4/6 328/4/6 332/4/6
f 329/4/6 330/4/6 332/4/6
f 328/4/6 329/4/6 332/4/6
f 332/4/6 330/4/6 333/4/6
f 333/4/6 330/4/6 334/4/6
f 334/4/6 330/4/6 335/4/6
f 333/4/6 334/4/6 336/4/6
f 336/4/6 334/4/6 337/4/6
f 337/4/6 334/4/6 338/4/6
f 338/4/6 334/4/6 339/4/6
f 337/3/6 338/3/6 340/3/6
f 340/3/6 338/3/6 341/3/6
f 341/3/6 338/3/6 342/3/6
f 342/3/6 338/3/6 343/3/6
f 341/3/6 342/3/6 346/3/6
f 346/3/6 342/3/6 347/3/6
f 344/1/6 345/1/6 350/1/6
f 350/1/6 345/1/6 351/1/6
f 347/3/6 348/3/6 353/3/6
f 353/3/6 348/3/6 354/3/6
f 351/1/6 352/1/6 356/1/6
f 350/1/6 351/1/6 356/1/6
f 349/1/6 350/1/6 356/1/6
f 356/1/6 352/1/6 357/1/6
f 357/1/6 352/1/6 358/1/6
f 358/1/6 352/1/6 359/1/6
f 354/3/6 355/3/6 360/3/6
f 360/3/6 355/3/6 361/3/6
f 356/3/6 357/3/6 362/3/6
f 357/1/6 358/1/6 363/1/6
f 362/3/6 357/3/6 363/3/6
f 363/1/6 358/1/6 364/1/6
f 361/3/6 362/3/6 365/3/6
f 365/3/6 362/3/6 366/3/6
